<?xml version="1.0" encoding="utf-8"?>
<!-- Generator: Adobe Illustrator 16.0.0, SVG Export Plug-In . SVG Version: 6.00 Build 0)  -->
<!DOCTYPE svg PUBLIC "-//W3C//DTD SVG 1.1//EN" "http://www.w3.org/Graphics/SVG/1.1/DTD/svg11.dtd">
<svg version="1.1" xmlns="http://www.w3.org/2000/svg" xmlns:xlink="http://www.w3.org/1999/xlink" x="0px" y="0px" width="1000px"
	 height="778px" viewBox="0 0 1000 778" enable-background="new 0 0 1000 778" xml:space="preserve">
<g id="Layer_1">
	<g id="XMLID_1_" opacity="0.5">
		<g>
			<polygon fill="#AB987A" points="999,469.3 989.3,478.8 976.3,491.4 969.901,497.7 953.7,513.4 947.2,519.7 934.3,532.3 
				931,535.5 918.1,548 908.401,557.5 895.5,570.099 887.3,578.4 875.1,591 863,603.599 841.5,627.099 820.1,650.7 805.8,666.4 
				802,670.5 796.8,676.2 794.8,677 780.901,676.2 763.6,675.2 732,673.4 729.6,674 723.8,676 702.7,680.9 675.401,693.9 
				664.8,702.599 663.901,704 663,706.2 661.8,710.9 660.8,713 658.8,715.3 656.3,717 653.5,718.099 628.5,722.3 620.7,723.7 
				609.901,723.8 607.8,724.3 605.5,725.5 601.7,728.5 597,731.4 595.8,732.4 595.401,733.7 595.401,735.8 595.1,736.599 
				594.1,737.4 593.2,738.7 590,740.5 587,739.9 584.1,738.4 580.901,737.4 578.1,739 577.1,739.2 576.2,739 574.401,738.3 
				573.401,738.2 568,739.5 566.3,739.599 562.901,740.599 548.7,741.4 545.2,741 541.901,739.7 539,737.4 534.7,731.4 533,729.8 
				531.901,729.099 528.7,728 527.5,727.4 526.8,726.7 525.7,724.7 524.1,722.8 520.1,720.099 518.6,718.099 514.401,720.9 
				493.2,729 492.8,729.4 492.5,730.5 492.1,730.8 480.1,735 478.9,734.8 478.9,735.5 478.6,735.9 475.5,737.4 457.7,746 
				456.3,747.7 453.1,756.099 452,758.099 450.8,759.8 441.2,768.599 439.4,770.7 438,775.099 436.9,776.9 434.7,777 433.7,776.3 
				433.2,775.4 432.8,774.5 432.3,773.7 430.2,773.099 421.9,772.8 422.5,771.599 422.2,770.9 421.3,770.8 418.3,772.599 
				415.8,772.599 413.2,772.099 407.2,769.3 408,768.599 407.5,768.099 412.9,765.2 418.6,762.7 421.2,761 423.3,758.3 432.4,742.7 
				434.4,738.5 433.5,735.7 433.4,734.4 433.7,733 435.8,727.4 437.2,721.5 437.7,720.599 440.1,717.5 450.6,693.2 451,691.5 
				451.2,687.5 452.5,680.2 454.4,674.8 455.8,669.3 458.3,664.4 462.4,653.8 468.7,644.7 470.1,643.599 471.1,643.599 473,644.599 
				475.4,645.599 480.2,646.599 481.6,646.4 485,645.2 485.6,645.099 487.3,645.2 489.4,644.8 492.1,644.5 497.1,643.4 500.2,643.4 
				501.2,642.8 503,642.5 504.1,642 514.6,632.5 524.3,627.099 529.2,623.5 526.8,617.8 526.3,616 526.2,614 526.3,608.7 
				525.401,596 525.901,592.5 526.3,590.8 526.5,589.099 526.6,587.4 526.5,585.7 526.2,584.3 525.6,582.7 525.2,581.2 
				525.401,578.4 524.901,575.2 525.401,573.7 528,569 529,567.599 532.901,563.8 536.2,559.3 537.6,558 539.2,557.099 
				542.401,556.9 545.6,558.4 548.8,560.599 557.1,565 560.401,565.5 562,566 563.5,566.8 564.901,567.9 575.7,579 576.5,577.4 
				577.5,576.5 580,574.8 581.1,573.5 583.3,569.099 585.2,567.099 588,565.4 590.6,565.099 591.7,567.3 593.3,567.3 594.8,566.9 
				596.3,566.3 597.8,565.5 598.2,565.2 600,563.4 600.401,562.7 601,561.5 601.8,560.2 602.5,559 603.7,554.3 605.5,551.5 
				606.2,550 605.5,548.7 606.1,547.9 606.2,547.2 605.901,545.7 606.1,545 606.8,543.4 607.1,541.7 607.8,540.7 610,539.5 
				609.901,538.7 610.2,538.2 611,537.5 611.8,535.4 612.7,534 613.1,533.3 613.2,532.4 613.1,530.9 613.2,530.2 613.5,529.599 
				614.8,527.599 615.7,524.5 616,521.3 615.2,517.099 614.7,516.599 594.3,508.599 593.7,507.5 593.2,505.5 592.6,502 592.5,500.5 
				592.7,499.2 593.6,496.4 596.7,489.599 597.8,485.8 597.401,482.8 596.3,480.9 595.6,479.3 595.401,477.599 596.3,461.3 
				597,457.5 598.3,454.3 602,449 602.901,447.2 603,445.4 602.6,441.5 603.1,439.9 605.6,436.599 608.401,433.7 614.7,428.3 
				619.2,427.099 621.8,431.9 622.7,432.8 630.6,434.3 634.401,435.9 636.401,438.7 638.401,450 639.5,453.5 641.1,456.7 
				643.2,459.099 645.401,459.599 647.8,456.8 650.401,447 652.2,444.5 653.6,443.7 659.5,442.2 660.6,441.3 661,439.7 661.1,437.9 
				661.7,434.7 661.8,432.8 661.6,431 661.2,429.3 660.5,428 657.1,424.5 656.401,421.4 658.5,415.2 658,412.4 656.7,411.3 
				653.8,409.099 652.5,407.9 647.901,402.8 643.8,396.3 642.6,393.599 642.401,392.4 642.6,390.599 642.3,390.099 641.1,388.8 
				640.3,387.5 638.1,381.1 637.901,380.1 637.8,378.5 637.6,377.9 633.401,369.3 631.2,366.2 628.8,363.8 626.7,363.3 627.1,356.7 
				626.3,353.8 623.6,353 621.1,350.2 617.8,349 614.401,349.4 611.3,351.4 603.6,359.2 602.401,359.4 600.6,358.8 595.5,356 
				593.7,355.5 592,355.9 588.8,358 587.5,357.9 585.1,358.4 583.6,362.2 583,366.7 583.401,369.7 581.7,370.1 580,369.9 
				578.6,369.3 577.6,367.9 576.8,367 575.3,366.7 573.6,366.9 572,367.3 570.7,368 568.401,370 567.2,370.6 565.7,370.5 
				560.6,368.7 555.1,367.6 552.3,367.5 549.7,368.2 549,368.6 547.2,370.5 545.8,371.7 544.3,372.6 542.8,373.3 539.6,374.5 
				538.2,375.2 536.901,376.1 535.7,377.1 535.1,377.5 533.6,377.6 532.901,377.8 532.2,378.1 530.1,379.5 527.2,380.5 525.5,380.9 
				524.1,381 522.6,380.5 521.6,379.5 521,378.1 520.6,376.4 520.901,375 522.1,374.9 525,375.5 526.7,375.4 528.401,375 
				529.3,374.1 528.6,372.7 525.5,370.8 522.401,370.8 519.1,371.5 515.401,371.5 514.6,371.4 514,371.7 514.6,367 515.8,362.1 
				516.8,359.6 522.7,350.4 526.401,346.2 534.8,338.9 535.8,337.4 535.2,336.5 532.2,335.3 531.1,334.3 530.6,332.6 530.5,330.9 
				540.1,294.1 540.1,292.2 539.7,289.4 539.901,288.1 540.5,286.7 542.8,283.9 547.901,278.8 549.8,275.7 550.2,274 550.5,272.1 
				551,270.4 552.3,269 553.8,268.6 580.3,268.8 582.3,268.6 583.5,268.1 584.6,267.4 585.401,267 585.8,267.7 587.5,268.3 
				595.401,269.9 595.8,270.7 596.2,271 596.7,271.1 597.401,270.5 597.901,270.3 601.6,270.2 603.5,269.7 605.5,267.6 607.3,267 
				611,266.6 614.401,267.4 615.7,267.4 616.6,267.2 618.901,266.1 621.3,266 623.401,265.3 625,265.5 626,265.9 627,265.9 
				628.401,265.2 632.8,262.3 638.8,260.5 641.901,260.2 646.6,261.4 648.2,261.4 649.5,261.9 651.2,265.6 652.3,266.6 653.8,266.9 
				656.5,267.2 658.2,267.7 659,267.8 660,267.4 660.7,266.6 661.401,266 662.401,266.4 661.6,267.9 660.901,270.6 660.401,271.8 
				659.3,272.7 656.5,273.9 655.5,275 654.901,276.3 654.7,277.5 654.3,278.5 653.2,279.6 650.8,281.5 650,282.6 649.401,284.3 
				648.8,287 648.3,288.4 647.5,289.5 646.2,290.2 644.901,290.6 644,291.3 644.1,292.7 645.401,295.8 647.2,298.6 650.901,302.2 
				651.901,303.5 652.6,305.4 653.5,311.5 654.7,315.9 656.6,320 658.3,322.1 664.7,326.3 666.3,327.9 667.5,329.9 668.3,332.1 
				668.901,334.4 670.1,337.5 672,339.4 674.401,340.3 677.5,340.9 679.901,342 681.2,344.2 683.1,355 684.1,357.6 685.5,359.2 
				687.3,359.7 687.901,360 688.5,360.6 689.1,362.1 689.6,362.8 690.2,363.4 691.6,364.3 692.2,364.9 693.7,368 694.1,369.2 
				694.2,371.5 694.5,372.7 695.401,373.8 704,379 705.2,379.1 706.8,378.5 707.901,378.4 708.901,378.9 714,383.6 719.901,389.1 
				733.1,401.099 735.7,402.7 776.2,416.099 811.401,427.8 834.901,435.599 851.7,441.3 874,448.9 890.8,454.599 918.7,464 
				928.5,467.3 932.401,469.3 938.3,469.3 989.5,469.3 			"/>
			<path fill="#AB987A" d="M661.6,431l0.2,1.8l-0.1,1.9l-0.601,3.2l-0.1,1.8l-0.4,1.6l-1.1,0.9l-5.9,1.5l-1.399,0.8l-1.8,2.5
				l-2.601,9.8l-2.399,2.8l-2.2-0.5L641.1,456.7l-1.6-3.2l-1.1-3.5l-2-11.3l-2-2.8L630.6,434.3l-7.899-1.5l-0.9-0.899l-2.6-4.801
				l-4.5,1.2l-6.3,5.4l-2.801,2.899l-2.5,3.301l-0.5,1.6l0.4,3.9l-0.1,1.8L602,449l-3.7,5.3l-1.3,3.2l-0.7,3.8l-0.899,16.3
				l0.199,1.7l0.7,1.601l1.101,1.899l0.399,3l-1.1,3.8L593.6,496.4l-0.899,2.8l-0.2,1.3l0.1,1.5l0.601,3.5l0.5,2l0.6,1.1l20.4,8
				l0.5,0.5l0.8,4.2l-0.3,3.2l-0.9,3.1l-1.3,2l-0.3,0.601l-0.101,0.7l0.101,1.5L613.1,533.3L612.7,534l-0.9,1.4l-0.8,2.1l-0.8,0.7
				l-0.3,0.5l0.1,0.8l-2.2,1.2l-0.7,1l-0.3,1.7l-0.7,1.6l-0.199,0.7l0.3,1.5l-0.101,0.7l-0.6,0.8l0.7,1.3l-0.7,1.5l-1.8,2.8
				l-1.2,4.7l-0.7,1.2l-0.8,1.3l-0.6,1.2l-0.4,0.7l-1.8,1.8l-0.4,0.3l-1.5,0.8l-1.5,0.601l-1.5,0.399h-1.6l-1.101-2.2L588,565.4
				l-2.8,1.699l-1.9,2l-2.2,4.4l-1.1,1.3l-2.5,1.7l-1,0.9l-0.8,1.6l-10.8-11.1l-1.4-1.101L562,566l-1.6-0.5L557.1,565l-8.3-4.4
				l-3.2-2.199l-3.199-1.5l-3.2,0.199L537.6,558l-1.399,1.3l-3.3,4.5l-3.9,3.8l-1,1.4l-2.6,4.7l-0.5,1.5l0.5,3.2l-0.2,2.8l0.399,1.5
				l0.601,1.6l0.3,1.4l0.1,1.7l-0.1,1.699l-0.2,1.7l-0.399,1.7l-0.5,3.5l0.899,12.7l-0.1,5.3l0.1,2l0.5,1.8l2.4,5.7l-4.9,3.6
				l-9.7,5.4l-10.5,9.5l-1.1,0.5l-1.8,0.3l-1,0.601h-3.1l-5,1.1l-2.7,0.3l-2.1,0.4l-1.7-0.101L485,645.2l-3.4,1.2l-1.4,0.199l-4.8-1
				l-2.4-1l-1.9-1h-1l-1.4,1.101l-6.3,9.1l-4.1,10.601l-2.5,4.899l-1.4,5.5l-1.9,5.4l-1.3,7.3l-0.2,4l-0.4,1.7l-10.5,24.3l-2.4,3.1
				l-0.5,0.9l-1.4,5.9l-2.1,5.6l-0.3,1.4l0.1,1.3l0.9,2.8l-2,4.2l-9.1,15.6l-2.1,2.7l-2.6,1.7l-5.7,2.5l-5.4,2.899l0.5,0.5l-0.8,0.7
				l-1.5-0.5l-3.8,0.8h-1.1l-1-0.399l-1.1-0.101l-2.8,0.5h-1.7l-11.5-3.1l-1.3-0.7l-1-1l-1.8-2.399l-0.1,1.8l-3.8-0.2l-0.4-0.3
				l-0.2-0.601l-0.9,0.4h-1.3l-0.9-0.3l-0.4-0.9l-0.5-0.6l-1.3-1.101l-0.3-0.1l-0.7,0.2l-0.1,1.6l-3.4,1.5l-3.8,0.3l-14.1-1.6
				l-2.1,0.1l-2.1,0.601l-0.8-0.2l-1.6-1.3l-2-0.601l-0.8-0.5l-1-1.199l-1.7-2.7l-1.3-1.3L311.1,741.3l-11.5-7.399L292,729
				l-16.6-10.7l-1.1-0.2l-0.2-0.3l-0.3-1.5l-0.3-0.7l-0.4-0.6l-0.5-0.1l-1.4,0.1l-0.5-0.4l-1-1.699l-0.7-0.5l-2.7-0.601l-4.7-2.399
				l-4-1.101l-12.8,0.101l-0.2-0.101l0.8-0.7l2.3-0.8l1.3-0.899l0.6-0.801l1-2.699l1.2-2.7l3.2-4.9l4.8-6.2l1.7-3.5l0.4-3.8
				l-0.4-1.8l-1.5-3.2l-0.4-1.8V673l3.1-9.9l1.4-2.899l2-2.3l1.5-0.9l1.6-0.2l5.1,0.8h1.6l6.3-0.899l1.1-0.101l2,0.2l1.7,0.5
				l2.8,1.601l1.6,0.6l3.5-0.2l3.5-1.399l6.5-3.5l3-1.101l1.6-0.7l0.9-0.899l0.8-1.2l1.1-0.8l1.4-0.3l1.5,0.3l3.2,1.3l3.2,0.9
				l1.2,0.8l1.2,1.1l1.4,0.8l1.6-0.1l1-0.9l0.4-1.3l0.1-1.5l-0.4-3.2l0.1-1.399l0.5-1.3l0.9-1.601l1.2-2.899l0.6-3.4v-3.5l-1-4.6
				l0.5-1.2l1.1-0.8l3.2-0.601l4.2-2.2l1-1l0.3-1.699l-0.5-1.601L339,619l-1.6-0.5l-1.1-1.1l-0.7-1.4l-0.6-3.2l-1.3-2.8l-0.4-1.7
				l-0.6-1.1l-1.4-0.7l-6.7-2.8l-2.2-0.5l-1.5-0.4l-0.5-1l0.1-1.7l-0.7-4.899l0.1-1.601l0.7-1.399l1.8-2.7l1.3-2.5l1.1-3.5l0.3-3.5
				l-1.3-2.5l-2.2-2.6l-0.2-2.801l1.3-2.899l3.1-4.4l1.1-1l1.2-0.1l1.5,1.3l0.3,0.2l2.2,0.1l0.8-0.1l1.7-0.601l1.4,0.2l1.1,1
				l0.9,1.101l1.3,0.699l0.7,0.301l2.8,1.699l1.2,1.101l1.7,2l0.8,0.1l1.4-0.399l1.4-0.2l1.3-0.101l1.2,0.301l2.4,2.199l0.1,2.801
				l-1.7,2.399l-4.3,1.601l-0.7,1l-1.1,2.5l-0.1,1.399l1.2,2.601l-0.2,1.6l-1.1,1.5l-1.4,0.5l-1.5-0.2l-1.4-0.7h-1l-0.5,1.5
				l-0.1,1.801l0.3,1.399l8.2,14.4l1.3,1.7l1.5,0.199l1.4-0.3h1.4l1.4-0.3l4.8-3.2l0.2-0.8l-0.7-0.7l-3.9-2.2l-1.8-1.8l-0.4-0.7
				l0.2-0.5l1.2-1.1l0.8-1.2l2.3-4.1l0.8-2.7l0.8-1.2l1.5-1.1l1.2-0.7l0.7-1l0.2-2l-0.8-5.7l0.4-3.3l1.3-2.3l2.4-1.3l3.3-0.601
				l2.7,0.101l2.7,0.5l5,1.5l0.5,0.1h1.8l2.4-0.3l0.9,1.7l0.5,0.6l5.1,2.4l0.3,0.6l1.6,1.9l1.9,3.5l1.3,2l0.4,1.5v0.5l3.2,2.8
				l2.9,0.2l6.6-0.9l-1-1.1l-0.6-1.301l-1.1-2.899l-0.2-1.601l0.7-1.3l1-1.2l0.7-1.5v-3l-1.6-6.1l-0.4-3l-0.3-1.2l-1.1-1.2l-5-4.6
				l-2.6-1.7L398,559.9l-1-0.9l-1.7-0.4l-3.2-0.3l-1.1-0.2l-8.7-4.5L380,552.9l-1.2-0.7l-1.1-0.9l-0.5-0.8l-0.2-2.3l1.9-10.101
				l-1.5-3.899l-2-3.2l-2.2-1.7l-1.7,0.3l-2.2,1L367,529.7l-2.1-1.4l-1.9-0.5l-2.6-0.5l-2.1-1.3l-1.7-0.6l-1.3,2.1l-0.6,1l-2.7,3.2
				l-1.1,0.8l-6.1,1.3l-2.3-0.6l-1.8-0.9l-1.1-1.2l-0.4-1.3l0.2-2.5l0.5-2.3l1-2.1l1.8-1.601l9.2-5.7l0.7-1l0.6-2.699l0.6-1.4
				l1.8-2.1l0.8-1.4l0.5-1.6l0.5-1l0.9-0.9l1.7-0.7l1.5-0.5l1.1-0.5l0.6-0.899v-1.7l-0.7-5l0.2-3.2l0.2-1.2l1.2-2.5l0.4-1.399
				l0.6-1.2l2.4-2.4l1.5-2.7l2.9-3.6l2.2-3.6l0.9-2.7l0.6-1.3l0.2-0.7l-1-5.101l-0.7-2.399l-0.2-0.9l-0.5-1.7l-2.1-2.899l-0.4-1.4
				l3.9-1.3l0.6,1.4l1.2,5.399l0.6,1.101l0.7,1l1.7,1.899l0.6-1.399l0.1-1.5L380,458.3l0.1-1.6l1.1-4.5l-1.6-1.101l-0.8-0.899
				l-0.3-1.2l0.7-3.3l-0.2-1.5l-0.6-1.5l-0.8-1.3l-4.2-2l-1.1-1l-1.4-0.101l-1.5,0.3l-1.3,0.4l-0.4,0.2l-1.4,1.6l-1,1.4l-0.5,1.1
				l-0.8,4.3l-0.6,1.101l-2,1.7l-2.8,0.899l-2.4-0.399l-1-2.5l-0.3-2.801l-0.4-1.5L354,443.2l-1-1l-1.1-0.7l-1.4-0.3l-3.6,0.899
				l-9.1,1.101l-12.6,3.1l-1.7,0.101l-4.5-1l-1.5,0.1l-1,0.3h-0.9l-1.3-0.7l-4.5-0.6h-1.4l-0.9-1.3l-0.9-1.8l-1.3-1.2h-1.5l-1.4,0.7
				l-1,1.1l-0.8,1.3l-1.2,2.9l-0.3,1.899l0.4,0.601l0.3,1.2l0.7,0.899l1.1,0.7l1.1,0.5l4.9,1.2l0.6,0.399l0.1,0.801l-0.8,5.8
				l-0.1,4.899l0.3,1.301l1.1,2.1l0.4,1.2v1l-0.1,0.8l-1.9,0.5l-1.3,0.3l-1.4-0.2l-1-0.699l-1.3-2.801l-1.7-0.699l-2.2,0.199l-4,1.2
				v1.8l2.4,2.7l0.4,1.9l-0.3,1.2l-1.2,2.3l-0.4,1.3l-0.2,1.2v6.899l0.5,2.601l1.6,5.1v0.9l-1.8,7l-0.3,0.5l-0.4,1.399l-0.3,3
				l-0.9,2.101l-0.2,0.3l-0.8-0.3l-2.2,1.399l-6.6,3l-4.4,3.4l-1.9,1.1l-2.2,0.4l-5.3-0.3L265,521l-2.4,0.2l-3.1-0.3l-3-0.801
				l-2.9-1.3l-11.4-7.6h-1.3l-5.2-2.2l-1.5-0.5l-1.3-0.2H230h-0.6l-2.4-0.8l-0.9-0.4l-1.2-0.8l-0.5-0.2l-1.5-0.199l-4-1.5l-3-1.5
				l-2.4-1.9l-2.6-1.6l-5.2-0.7l-1.1-0.8l-0.5-1.301l0.1-1.8l0.4-1.8l-0.1-1l-1.5-2.4l-1.6-3.3l-0.8-1l-1-0.6l-2.2-1l-4.1-2.5
				l-1.3-1.3v-1.2l1.9-2.4l0.8-1.3l0.5-1.5l-0.1-1.6l-1.8-6.301l-0.5-1.1l-0.9-0.7l-1.5-0.3l-1.5-0.2l-1.6,0.101l-1.4,0.399
				l-1,1.101l-1.5,2.3l-0.1,1.3l1.2,1.3l2.3,1.601l1,0.899l0.5,1.101l-0.5,1.1l-1.1,1.4l-1.4,1.199l-1,0.7l-0.5,0.2l-2.2,0.4
				l-1.3,0.5l-0.9,0.399l-2.6,1.7l-1.4,0.6l-1.5,0.101l-1.7-0.8l-0.7-1.101l-0.4-1.3l-0.8-1.6h-2.8l-1.4,0.399l-1.1-0.1h-1l-1.5,1.1
				l-1.6,1.101l-0.7,0.199l-1.2-0.1l-0.4,0.2l-0.8,1.399v1.5l-0.3,1.301l-2.7,1.699l-1.7,2.4l-1.2,0.9L151,490.8l0.1,3.3l1.3,5.9
				l0.1,1.5l-0.8,1.2l-1.4,0.899l-1.3,0.7l-1.1,0.8l-0.4,0.2l-1.6-0.7L145,504.4l-2-0.101l-1.2-0.5l0.3-1.1l1.1-1.3l0.9-0.801
				l0.5-1.1l-0.9-0.8l-6.7-2.4l-1-0.8l-0.5-1.4l-0.4-3.199l-0.7-1.4l-2.2-2.2l-2.4-1.899l-2.1-2l-1.4-2.9l-0.1-3.2l1.1-2.8l4.2-6
				l0.4-0.8l-0.4-0.7l-3.2-1.1l-0.6-0.7l0.6-0.8l3-1.301l4-2.3l3.4-1.1l1.6-0.8l0.6-1l-2.1-1.5l-3.6-0.4l-3.8,0.1l-4.8,0.801h-2.1
				l-1.8-0.801l-1.2-1.699l-1.1-2.101l-1.3-1l-3.9-0.8l-2-0.9l-1.4-1.399l-2.4-3.5l-1.9-1.601l-6.7-3.399l-3.3-2.601l-5.8-5.6
				l-3.4-2.3l-2-0.9l-1.7-0.2L83,428.7l-3.2,2.3l-0.8,0.2l-0.8-0.601L77,429.4l-1.6-0.801l0.3-1.699L73.8,387.8l3.1,0.1l12.4,1.1
				l1.9-0.2l1.3-0.9l0.9-1.2l0.7-1.2l0.6-1.2l0.5-1.6l2.6-11.7l1.4-12.5l1.6-1h1.5l2.5-0.4l1.2,0.2l1.5,1.1l3.1,2.7l1.7,0.9l2.1-0.3
				l7.5-8.1l2.5-4.7l3.9-12.3l-0.5-1l-1-1l-0.6-1.6l0.3-0.6l8.5,0.6l1.1,0.4l0.4,0.7l-0.1,1.7l0.1,1.6l0.7,1.1l1.7,0.1l5.2-0.8
				l2.2,0.1l3.1,0.5h1.3l1.3,0.2l1.4,0.8l2.5,1.9l13.4,13.4l9.1,11.1l3.3,3.4l2.8-0.5l0.9,0.1l0.9,1.2l1.3,2.9l0.2,0.8l-0.1,3.8
				l0.7,0.8l0.8,0.4l0.8,0.1l2-0.1l2.6,0.2l1.3-0.1l0.6,0.3l0.5,0.9l0.6,1.3l2.4,4.2l0.6,0.8l0.8,0.1l2.1-0.2l1.1,1.3l0.9,4.2
				l1.5,0.6l9.7-12.7l1.9-5.5l0.8-4.8l-0.4-3.7l-2-2l-1.1-0.8l-4.5-5.3l-2.1-1.8l0.1-0.3l1.3-1l0.6-1.1l-0.1-1.4l-0.7-1.6l-0.4-1.4
				l0.4-6.4l-0.6-11.9h0.8l1.2,0.9l1.3-0.1l1.3-0.5l2.7-1.5l5.9-4.3l2.2-2.5l3.5-5.8l1-1.2l2.5-2.6l1.2-1l1.4-0.6l4.1-0.4l0.4,0.2
				l-2.3,6.6l-0.2,0.8l0.4,0.4l1.2,0.4l1.1,0.5l1.1,0.3l1.4-0.3l1.5-3l0.9-0.7l5.8-3l1.2,0.1l2.9,1.8l3.6,1.5l1.4,1.1l6.9,2.1
				l1.3,0.1l0.8-0.4l0.7-0.9l0.7-1.3l1.3-3.7l1.9,1.6l1.3,0.7l1.3,0.5h4.5l1,0.5l0.2,1.8l-1,2l-0.8,2l0.9,2.3l1.6,1.7l1,0.4l1.2-0.2
				h0.9l1.1,0.3l1.1,0.5l0.5,0.7l0.1,0.8v1.5l0.3,0.8l0.8,1.1l0.5,0.4l0.7-0.1l0.7-0.8l0.6-1.9l1-0.3l2.3,0.3l2.2,0.6l6.4,2.9
				l0.9,0.7l1.4,1.9l1.5,1.8l0.4,0.8l1,1.2l6.2,4.6h1.1l1.8-1l1-0.2l1.7,0.3l0.6-0.2l4.7-2.6l0.6-0.6l1-1.3l0.5-0.3l1.8-0.2l0.6-0.2
				l3.1-2.2l9.5-4.5l4-1l1.1-0.7l1.7-1.7l0.6-1.4l0.8-0.7l1.9-0.4l1.8-0.6l1.3-0.2l1.7,0.5h1.6l1.7-0.3l1.5-0.7l0.9-1.3l0.2-0.8
				l-0.1-0.7l-0.5-1.4v-0.9l0.3-0.4l0.7-0.3l0.5-0.5l0.5-0.7l1.7-7.3l0.4-0.7l0.6-0.5l15.6-0.8l7.7,1.4l1.2,0.9l-0.1,2.5l-2.9,13.6
				l-0.8,1l-4.4,2.3l-2.6,0.6l-2.6-0.5l0.1,2l1.3,1.2l4.2,1.6l1.2,0.9l0.8,0.7l1.2,1.8l0.2,0.4l0.1,3.4l0.5,3.3l1.1,3.1l2.2,2.7
				l4.3,2.1l12.1,2.5l7.7,3.4l3.2,4.7l2.4,4.3l2.2,2.8l2.4,0.5l1.5-0.1l2,0.4l1.4,0.8l-0.2,1.6l0.4,0.6l3.9,4.1h-0.1l-2.3-0.8
				l-1.7,0.3l-3.3,2.4l-0.9,0.4l-5.7,0.4l-1.6-0.1l-1.1,0.1l-0.4,0.6l0.2,1.9l0.6,2.5l0.9,2.2l1.4,1.1l3.5,0.7l1.4,1.1l0.2,2
				l-0.8,2.2l-5.7,9.3l0.2,3.9l-0.2,1.3l0.1,1.101l1.7,3.699l0.5,0.7l0.8,0.601l1.2,0.3l1.5-0.101l3.4-3.399l1-0.4l2,0.7l2.4,3.7
				l1.7,0.899l1.4-0.3l3.2-2.3l2.3-1.4l6.8-2.399l2.1-1.3l0.7-2l-0.2-13.7l2.9-2.4l3.6-0.399h1.8l1.3,0.699l0.5,1.101l0.5,3l0.3,1.2
				l0.6,0.8l0.6,0.6l0.3,0.7l-0.2,1.3l2.9,0.101l2.2,0.399l1.2,1.3v3l-1.6,4.4l0.4,1.5l0.8,0.3l4.1-2.8l1.3-1.4l2.4-4.199l2.2-0.2
				l1.7-1.101l1.5-1.3l0.8-2.2l0.1-1.5l0.2-1l0.5-1l4.2-4.1l0.9-1.2l4.5-7.4l1.8-2.2l2.1-2.2l2-1.6l2.301-1l5.5-0.9l2.1-0.5l1.8-1
				l1.7-1.8l0.6-0.3l0.801,0.1h3.699l3.301-0.7h3.1l3.1,1.9l0.7,1.4l-0.899,0.9l-1.7,0.4l-1.7,0.1l-2.9-0.6l-1.199,0.1l-0.301,1.4
				l0.4,1.7l0.6,1.4l1,1l1.5,0.5l1.4-0.1l1.7-0.4l2.899-1l2.101-1.4l0.7-0.3l0.699-0.2l1.5-0.1l0.601-0.4l1.2-1l1.3-0.9l1.399-0.7
				l3.2-1.2l1.5-0.7l1.5-0.9l1.4-1.2l1.8-1.9l0.7-0.4l2.6-0.7l2.8,0.1l5.5,1.1l5.101,1.8l1.5,0.1l1.2-0.6l2.3-2l1.3-0.7l1.6-0.4
				l1.7-0.2l1.5,0.3l0.8,0.9l1,1.4l1.4,0.6l1.7,0.2l1.7-0.4l2.1-1l1.9,0.2l1.899,0.3l2.101-0.4l0.8-0.1l1.899,0.6l0.801,0.2l1.6-0.2
				l3.7-1.7h1.8l4,2l1.2-1.5l1.899-1.5l1.601-1.5l0.3-1.6l-1.3-2.1l-0.2-0.8l0.3-0.6l0.9-0.7l2-1.1l1.6-0.6l3.4-0.2l1.1-0.6l1.101-1
				l2.399-2.1l1.3-0.7l2.7,0.8l0.8,2.9l-0.399,6.6l2.1,0.5l2.4,2.4l2.2,3.1l4.199,8.6l0.2,0.6l0.101,1.6l0.199,1l2.2,6.4l0.8,1.3
				l1.2,1.3l0.3,0.5l-0.199,1.801l0.199,1.199l1.2,2.7l4.101,6.5l4.6,5.101l1.3,1.199l2.9,2.2l1.3,1.101l0.5,2.8l-2.1,6.2l0.699,3.1
				l3.4,3.5l0.7,1.3L661.6,431z M619.2,387l-0.4-1.2l-0.7-1.3l-0.399-1.2l0.1-0.9l0.8-1.4l0.4-3.2v-0.6l-1-1.5l-1.4,0.1l-1.6,0.8
				l-1.5,0.5l-1.7-0.5l-1.2-0.7l-1.1-0.1l-1.5,1.6l-2,3.4l-0.7,1.9l-0.3,2l0.1,1.5l1.101,0.2l1.3-0.3l1.3-0.1l0.601,0.4l1,0.9
				l0.5,0.3l1-0.1l1.8-0.8l0.899,0.3l1.801,1.6l1.1,0.3l1.1-0.6L619.2,387z M395,402.7v-1.3l-0.4-1.2l-1.7-3.8l-1.4-0.101
				l-1.7,0.101l-0.5-0.301l-0.2-1l-1.4,1.4l-0.7-0.1l-0.5-0.9l-0.3-0.3l-0.8,0.1l-2.7,0.601l-0.8,0.3l-1.1,0.899l-1.2,1.601
				l-0.9,1.8l-0.5,1.4l0.6,0.899l-0.1,0.5l1,1.601l0.6,2l0.5,0.6l0.6,0.6l1.5,0.5l0.7,0.601l0.6,0.7l1.3,1.6l0.8,0.6l1.3,0.7
				l1.3,0.2l0.8-1.1l0.4-1.301l0.9-0.1l1,0.1l0.8-0.5l0.1-1l-1-2.5l-0.2-1.199l1.4,0.399l1.4,0.101l-0.2-0.801l0.5-1.5L395,402.7z
				 M234.6,368.9l-0.4-0.6l-2.2-1.6l-1.2-0.3l-1.2,0.3l-1.3,0.9l-0.8,0.9l-0.4,1l-0.7,2.6l1.6,5.4l0.8,1.3l0.2-0.1l0.3-1.4l0.8-0.4
				l2.3,0.4l-1.5-3.1l-0.2-1.5l0.7-1.3l2.6-1.2l0.5-0.5L234.6,368.9z M223.3,405l0.5-0.6l-1.1-0.601l-1.2-1.399l-0.8-0.5l-2.9,1.5
				l-0.6,0.8l0.6,0.8l0.9,0.6l0.6,0.4l0.6,0.2l1.2-0.101l1.5-0.6L223.3,405z M217.8,416l-0.2-0.7l-0.3-0.7l-0.8-1.199l1-0.4v-0.9
				l-0.6-0.899l-1-0.4l-0.2-1.5l0.1-2l0.4-2.1l0.5-1.2l-0.8,0.3l-0.9-0.1l-0.8-0.3l-0.8-0.801l-0.5-0.8V402l1-1l-0.7-0.4l-1.9-0.6
				l-0.9-0.1l-0.7,0.3l-1.2-0.2l-2.8-0.7l-1,0.101l-0.5,0.699l-0.1,1.101v1.2l-0.1,1l-0.4,0.699l-1.1,1.301L202,406.3v0.8l0.3,1.7
				v0.8l-0.4,0.5l0.3,0.7l0.5,0.5l1.3,0.7l0.6-0.5h1.2l1.3-0.2l0.4,0.2l0.6,0.8l1.4-0.1l1-0.601l1.6-1.699l0.7,1l1.6,1.3l0.7,0.8
				l0.1,0.6l-0.1,1.101l0.4,0.6l1,0.601L217.8,416z"/>
			<polygon fill="#AB987A" points="623,163.2 626.2,166.6 622.2,172 620.1,176.4 611.3,188.6 610.2,191.1 609.7,192 608.1,192.7 
				607.401,193.5 604.7,198.6 596.7,210.1 595.901,210.8 595,211.5 594.1,212 593.3,212.2 592.8,212.6 592.401,213.6 591.7,214.5 
				589.1,215.6 588.1,216.3 587.1,218.4 586.2,223.6 584.2,229.8 584.2,233.5 586,241.3 586.6,247.1 585.8,246.7 583.901,246.9 
				582.3,247.9 581.1,249.4 580.1,251.1 579.6,253.9 580.7,256.9 583,259.4 585.7,260.9 586.6,260.2 586.6,261.8 586.2,264.7 
				585,266.6 585.401,267 584.6,267.4 583.5,268.1 582.3,268.6 580.3,268.8 553.8,268.6 552.3,269 551,270.4 550.5,272.1 550.2,274 
				549.8,275.7 547.901,278.8 542.8,283.9 540.5,286.7 539.901,288.1 539.7,289.4 540.1,292.2 540.1,294.1 530.5,330.9 530.6,332.6 
				531.1,334.3 532.2,335.3 535.2,336.5 535.8,337.4 534.8,338.9 526.401,346.2 522.7,350.4 516.8,359.6 515.8,362.1 514.6,367 
				514,371.7 512.3,373.5 510.5,374.5 508.401,375 502.901,375.9 500.6,376.9 498.6,378.5 496.5,380.7 494.7,382.9 490.2,390.3 
				489.3,391.5 485.1,395.599 484.6,396.599 484.4,397.599 484.3,399.099 483.5,401.3 482,402.599 480.3,403.7 478.1,403.9 
				475.7,408.099 474.4,409.5 470.3,412.3 469.5,412 469.1,410.5 470.7,406.099 470.7,403.099 469.5,401.8 467.3,401.4 464.4,401.3 
				464.6,400 464.3,399.3 463.7,398.7 463.1,397.9 462.8,396.7 462.3,393.7 461.8,392.599 460.5,391.9 458.7,391.9 455.1,392.3 
				456.7,389.7 458.9,386.7 460.7,383.6 460.8,380.4 458.4,378.5 457.5,378.1 455.7,377.6 455,377.3 454.1,376.2 454.3,375.2 
				455.2,374.1 456.6,373.1 459,370.7 460.3,367.6 460.7,364.2 460.6,360.7 458.1,354.3 457.9,351.6 460.6,350.9 466.2,352.5 
				468.8,352.5 469.7,350.6 469.4,349.8 468.6,348.3 468.6,347.4 470.4,345 471,343.7 472.9,341 473.4,339.6 473.5,337 472.9,335.6 
				471.5,334.6 469.5,333.4 468,332.3 467.2,331.1 467.1,329.7 467.8,328 468.9,327.1 470.5,326.7 472.1,326.8 473.5,327 475,327.4 
				476,327.5 476.5,327.1 476.6,325.7 476.4,323.9 476,322.1 475.8,320.4 476,318.5 477.3,315.4 477.5,314.1 478.2,305.6 
				478.5,304.2 479.3,302.8 479.6,301.5 479.5,300.6 478,295.7 478,294 478.7,290.7 478.7,289.2 478.3,288.4 476.2,285.8 475.4,284 
				475.4,282.5 475.9,281 477.9,277.6 478.6,275.8 478.7,274 478,272.2 476.3,270.3 480.1,264.6 480.5,263.6 480.8,262.4 
				480.8,261.2 480.5,258.8 480.3,255.6 479.9,253.8 479.2,252 476.5,247.1 475.5,245.8 474.3,244.6 472.2,242.4 472.4,240.4 
				472.4,238.4 471.8,234.7 471.2,233.1 468.4,228.4 467.8,226.9 467.3,223.4 466.9,221.9 466.4,221.2 464.9,220.5 463.5,219.3 
				462.3,217.9 460,213.6 459.5,212.3 459.5,210.4 460,203.8 459.9,203.5 458.3,202.5 457.4,201.4 457,200.5 456.6,199.5 
				456.5,198.6 456.6,196.6 456.4,195.6 456.2,194.5 455.8,193.6 454.5,191.8 454.5,191 454.6,190.1 454.6,189.1 454.1,187.3 
				452.4,183.8 451.9,181.8 451.9,180.1 452,179.4 453.1,176.2 454.3,175.1 454.8,173.8 455,172.2 455,170.6 454.8,169.2 
				453.8,167.1 453.6,166 453.9,162.6 454.7,159.7 456.1,157.2 458.4,154.7 459.5,152.7 460.2,149.6 460.5,146.4 460.1,144.2 
				458.4,141.4 457.4,140.4 456,140 454.5,139.8 453.5,139.3 451.5,137.6 451.4,137.3 452.1,135.4 452.1,133.9 452.4,132 
				452.4,130.6 452.1,127.4 453,127.3 453.8,126.4 454.6,125.2 454.9,124.1 454.9,123.7 454.1,122.7 453.7,122 452.6,116.8 
				452.2,116 451,115.3 450,114.2 449.3,112.8 449.2,111.9 450.5,105 450.7,103.3 450.5,101.6 449.4,98.8 449.4,97.1 451,91.8 
				451.5,90.9 454,92.1 456,90.9 456.3,88 455.7,84.6 454.8,82.2 454.3,79.7 454.6,76.7 455.8,70.3 455.7,66.3 455.3,64.9 
				454.3,64.1 453.9,63.3 453.9,62.4 454.2,59.8 454.1,58.7 453.9,57.3 453.4,56 452.6,55.3 451.8,55.5 450.8,55.9 449.8,55.8 
				449.3,54.6 449.7,54 451.9,51.5 450.9,50.9 449.7,50.7 447.6,50.6 447.1,50.2 447.4,48.9 449.1,45.4 452.1,42.1 452.3,41.2 
				451.3,40.3 447.2,40.6 445.7,39.8 445.7,39.2 446.1,38.6 448,37.1 450.1,35.8 454.7,34.9 455.8,35.1 458.5,35.9 463.5,36.4 
				465.3,36.2 465.7,35.9 466.2,35.3 466.7,34.2 466.8,32.4 466.6,30.9 467.7,30.2 469.3,30.5 470.2,30.5 473.5,29.5 474.7,29.5 
				480.7,31 483.6,32.1 486.2,33.7 495.8,42.7 499.7,44.7 506.8,48.1 508.6,48.8 514.6,49.6 519.2,51.3 523.2,54.2 537.2,70.3 
				547.1,87.9 549.1,89.9 569.7,103.1 581.7,113.1 584.3,115.8 586.6,118.8 588.7,122.3 593.901,133.6 597.3,138.5 602.5,141.9 
				606.3,143.5 610,145.6 613.2,148.3 617.6,155.8 			"/>
			<polygon fill="#AB987A" points="621.1,350.2 623.6,353 622.3,353.7 619.901,355.8 618.8,356.8 617.7,357.4 614.3,357.6 
				612.7,358.2 610.7,359.3 609.8,360 609.5,360.6 609.7,361.4 611,363.5 610.7,365.1 609.1,366.6 607.2,368.1 606,369.6 602,367.6 
				600.2,367.6 596.5,369.3 594.901,369.5 594.1,369.3 592.2,368.7 591.401,368.8 589.3,369.2 587.401,368.9 585.5,368.7 
				583.401,369.7 583,366.7 583.6,362.2 585.1,358.4 587.5,357.9 588.8,358 592,355.9 593.7,355.5 595.5,356 600.6,358.8 
				602.401,359.4 603.6,359.2 611.3,351.4 614.401,349.4 617.8,349 			"/>
			<polygon fill="#AB987A" points="618.8,385.8 619.2,387 618.6,388.3 617.5,388.9 616.401,388.6 614.6,387 613.7,386.7 
				611.901,387.5 610.901,387.6 610.401,387.3 609.401,386.4 608.8,386 607.5,386.1 606.2,386.4 605.1,386.2 605,384.7 605.3,382.7 
				606,380.8 608,377.4 609.5,375.8 610.6,375.9 611.8,376.6 613.5,377.1 615,376.6 616.6,375.8 618,375.7 619,377.2 619,377.8 
				618.6,381 617.8,382.4 617.7,383.3 618.1,384.5 			"/>
			<polygon fill="#AB987A" points="467.7,30.2 466.6,30.9 466.8,32.4 466.7,34.2 466.2,35.3 465.7,35.9 465.3,36.2 463.5,36.4 
				458.5,35.9 455.8,35.1 454.7,34.9 450.1,35.8 448,37.1 446.1,38.6 445.7,39.2 445.7,39.8 447.2,40.6 451.3,40.3 452.3,41.2 
				452.1,42.1 449.1,45.4 447.4,48.9 447.1,50.2 447.6,50.6 449.7,50.7 450.9,50.9 451.9,51.5 449.7,54 449.3,54.6 449.8,55.8 
				450.8,55.9 451.8,55.5 452.6,55.3 453.4,56 453.9,57.3 454.1,58.7 454.2,59.8 453.9,62.4 453.9,63.3 454.3,64.1 455.3,64.9 
				455.7,66.3 455.8,70.3 454.6,76.7 454.3,79.7 454.8,82.2 455.7,84.6 456.3,88 456,90.9 454,92.1 451.5,90.9 451,91.8 449.4,97.1 
				449.4,98.8 450.5,101.6 450.7,103.3 450.5,105 449.2,111.9 449.3,112.8 450,114.2 451,115.3 452.2,116 452.6,116.8 453.7,122 
				454.1,122.7 454.9,123.7 454.9,124.1 454.6,125.2 453.8,126.4 453,127.3 452.1,127.4 452.4,130.6 452.4,132 452.1,133.9 
				452.1,135.4 451.4,137.3 451.5,137.6 453.5,139.3 454.5,139.8 456,140 457.4,140.4 458.4,141.4 460.1,144.2 460.5,146.4 
				460.2,149.6 459.5,152.7 458.4,154.7 456.1,157.2 454.7,159.7 453.9,162.6 453.6,166 453.8,167.1 454.8,169.2 455,170.6 
				455,172.2 454.8,173.8 454.3,175.1 453.1,176.2 450.9,176.8 448.6,177.1 443.8,177.4 443.1,177.6 437.1,181.2 437,181 
				437.4,179.9 437.5,178.5 437.3,177 436.7,176 428.3,175.7 426.3,176.2 426,177.9 421.1,178.1 420.5,178 419.3,177 418.4,175.3 
				417.7,173.5 417.4,172 416.7,164.5 414,157.6 413.5,155.2 413.8,152.9 418.7,143.9 418.8,140.1 418.2,137.1 417.4,134.6 
				416.9,132.4 416.7,130.3 416.1,129 414.8,128.5 407.6,129.8 404.2,129.8 403,129.6 402.1,129 401.6,128 401.3,126.5 401.2,124.8 
				401.2,123.5 400.9,121.4 399.1,119.2 384.3,104.4 381.5,103.1 381.1,101.9 380.6,98.9 379.7,96.9 379.5,96.4 374.8,95.9 
				373.5,96 372.4,96.2 370.9,96.9 365.3,98.3 364.9,98 366.9,93.3 366.6,91.8 366.1,90.6 365.5,89.9 364.7,89.7 363.6,90.2 
				362.9,91.2 362.3,92.3 361.2,93.4 359.9,94.1 353.3,95 349.4,94.8 346.1,94.3 343.7,94.1 342.6,95.3 342,96.1 340.7,97 
				339.3,97.7 338.5,98 336.2,97.6 327.4,93.1 320,91.3 317.4,91.3 315.8,92.5 314.2,97.3 313.6,98.6 312.6,99.7 311.6,100.5 
				302.3,104.9 300.4,105.3 288.9,104.9 287.9,104.7 287.3,104.2 286.3,102.9 284.5,101.7 282.5,100.9 280.9,100.5 278.7,100.7 
				276.8,101.2 273.2,103.1 272.4,103.9 271.5,104.5 270.1,104.5 262.3,103.4 261.1,102.9 259.5,101 255.8,98.8 248.4,91.9 
				247.1,91.3 238.4,89 237.3,89 236.4,88 231.6,77.6 230.7,76.9 231.9,73.9 231.7,70.5 230.6,67 230.2,65.3 230.2,63.6 230.5,62.1 
				236.5,43.4 237.8,43.4 238.2,42.1 239.1,41.4 240.2,41.1 241.6,41.1 242.5,40.9 244.6,39.9 245.9,39.7 248.9,39.7 249.5,39.5 
				250.6,38.9 251.2,38.7 255.8,38.7 257.9,39 262.3,40.3 264.5,40.6 264.9,40.8 266.1,42.5 267.1,43.2 268.4,43.4 268.8,43.3 
				269.7,42.5 270.3,42.5 271.5,42.6 272,42.5 272.8,41.9 273.6,41.1 274.1,39.9 274.2,38.5 274.3,36.8 274.5,35.4 275.1,34.1 
				276.1,32.6 278,31.1 280.3,30.6 285.2,30.7 286.6,30.2 287.6,30.1 289.2,31.5 290.4,32.2 293,35.9 294,36.9 294.2,37.5 
				294.3,38.5 294.3,40.1 294.5,40.8 295.4,41.3 298.1,43.6 298.4,44 298.9,45.3 299.3,47 299.7,47.8 301.2,48.3 301.9,48.6 
				302.4,49.1 302.6,49.8 302.7,51.5 303,52.7 303.7,53.5 304.9,54.3 305.6,53.5 311.8,38.5 324.6,7.6 327.4,1 328.5,2 329.3,3.2 
				330.6,5.7 330.9,6 331.5,6.1 331.8,6.3 331.8,7.3 332.2,8.5 332.5,8.8 333.3,8.9 333.9,9.4 334.1,10.6 334.5,11.2 335,11.7 
				342.3,14.7 343.5,14.9 347.2,14.2 348.8,14.3 349.9,14.8 350.5,15.6 351.1,17 351.4,18.9 351.7,19.5 352.4,20.1 353.8,21.1 
				354.3,22 354.9,24.6 355.4,25.8 356.2,26.8 357.3,27.7 360.8,29.6 361.4,30.1 361.8,31.6 362.2,32.2 363,32.8 363.6,32.9 
				364.1,32.7 367.4,32.8 372.5,32.2 375,31.5 379.1,29.4 380.4,29.4 381.6,29.8 382.8,29.9 384,29.8 385.3,29.5 389.3,27.9 
				392.2,27.6 393.5,26.7 395.7,24.7 398.4,23.4 399.8,22.5 400.8,21.3 401,20 400.8,18.7 401,17.6 401.8,16.7 401.9,17 404.3,17.2 
				406.2,17.7 406.9,18 408.3,18.9 409.6,20.1 410.8,21.5 411.7,23 413.6,28.7 415,31.3 416.7,31.2 418.1,28.9 419,28.1 420.7,27.8 
				424.3,28.4 425.6,28.3 431,26.8 433.7,25.5 434.9,23.9 435.5,22.5 436.6,22.5 437.9,23.2 438.9,24.1 440.3,25.8 441.1,26.3 
				444.5,27.4 446.3,27.5 450.1,26.9 452.2,26.8 454.2,27.5 456.1,28.7 459.6,31.7 460.6,32.2 461.8,32.4 463.1,32 465.2,30.3 
				466.4,30 			"/>
			<polygon fill="#AB987A" points="409.2,591.4 410.2,592.5 403.6,593.4 400.7,593.2 397.5,590.4 397.5,589.9 397.1,588.4 
				395.8,586.4 393.9,582.9 392.3,581 392,580.4 386.9,578 386.4,577.4 385.5,575.7 383.1,576 381.3,576 380.8,575.9 375.8,574.4 
				373.1,573.9 370.4,573.8 367.1,574.4 364.7,575.7 363.4,578 363,581.3 363.8,587 363.6,589 362.9,590 361.7,590.7 360.2,591.8 
				359.4,593 358.6,595.7 356.3,599.8 355.5,601 354.3,602.099 354.1,602.599 354.5,603.3 356.3,605.099 360.2,607.3 360.9,608 
				360.7,608.8 355.9,612 354.5,612.3 353.1,612.3 351.7,612.599 350.2,612.4 348.9,610.7 340.7,596.3 340.4,594.9 340.5,593.099 
				341,591.599 342,591.599 343.4,592.3 344.9,592.5 346.3,592 347.4,590.5 347.6,588.9 346.4,586.3 346.5,584.9 347.6,582.4 
				348.3,581.4 352.6,579.8 354.3,577.4 354.2,574.599 351.8,572.4 350.6,572.099 349.3,572.2 347.9,572.4 346.5,572.8 345.7,572.7 
				344,570.7 342.8,569.599 340,567.9 339.3,567.599 338,566.9 337.1,565.8 336,564.8 334.6,564.599 332.9,565.2 332.1,565.3 
				329.9,565.2 329.6,565 328.1,563.7 326.9,563.8 325.8,564.8 322.7,569.2 321.4,572.099 321.6,574.9 323.8,577.5 325.1,580 
				324.8,583.5 323.7,587 322.4,589.5 320.6,592.2 319.9,593.599 319.8,595.2 320.5,600.099 320.4,601.8 320.9,602.8 322.4,603.2 
				324.6,603.7 331.3,606.5 332.7,607.2 333.3,608.3 333.7,610 335,612.8 335.6,616 336.3,617.4 337.4,618.5 339,619 340.2,619.8 
				340.7,621.4 340.4,623.099 339.4,624.099 335.2,626.3 332,626.9 330.9,627.7 330.4,628.9 331.4,633.5 331.4,637 330.8,640.4 
				329.6,643.3 328.7,644.9 328.2,646.2 328.1,647.599 328.5,650.8 328.4,652.3 328,653.599 327,654.5 325.4,654.599 324,653.8 
				322.8,652.7 321.6,651.9 318.4,651 315.2,649.7 313.7,649.4 312.3,649.7 311.2,650.5 310.4,651.7 309.5,652.599 307.9,653.3 
				304.9,654.4 298.4,657.9 294.9,659.3 291.4,659.5 289.8,658.9 287,657.3 285.3,656.8 283.3,656.599 282.2,656.7 275.9,657.599 
				274.3,657.599 269.2,656.8 267.6,657 266.1,657.9 264.1,660.2 262.7,663.099 259.6,673 259.6,674.5 260,676.3 261.5,679.5 
				261.9,681.3 261.5,685.099 259.8,688.599 255,694.8 251.8,699.7 250.6,702.4 249.6,705.099 249,705.9 247.7,706.8 245.4,707.599 
				244.6,708.3 244.2,708.2 243.2,707.7 242.7,707.5 219.9,708 219,707.9 217.8,707.3 217.2,707.099 216.4,707.099 214.2,707.4 
				204.2,707.5 202.6,707.099 201.2,706.2 198.6,704 197.5,703.2 197,702.3 197,701.099 197.2,699.8 197.2,698.5 196.3,696.9 
				196.1,695.8 187.1,686.099 185.4,683.3 184.9,680 185.2,666.099 185.5,665.2 188.1,662 188.6,660.599 188.6,659.2 188,657.599 
				186.7,655.099 186.5,653.8 186.9,652.2 188.7,649.599 188.4,649 184.7,647.599 180.4,644.9 178.7,644.4 177.4,644.7 176.2,645.3 
				174.7,645.599 173,645.2 170.2,642.9 168.7,642 167.5,641.7 166.1,641.5 164.7,641.5 163.5,641.7 162,642.7 159.3,645.7 
				157.8,646.7 156.2,647 155,646.4 154,645.3 151.8,641.8 151.5,641.2 151.6,640.4 152.7,638.9 153.1,638.2 152.3,636 149.7,634 
				144.4,630.8 141.4,628.599 140.7,627.4 140.1,623.5 139.2,621.7 133.8,614 133.1,612.5 133,611.599 133.5,609.2 133.3,608.4 
				132.2,607.3 131.9,606.5 131.9,605.8 132.1,605 132.8,603.599 132.1,599.2 131.6,597.9 130.5,596.5 129.2,595.3 128.1,594.099 
				126.8,590.8 124.5,586.7 124.2,585.3 124.1,581.4 123.7,579.7 121,575.099 120.5,573.7 119.9,569.9 118.5,566 117.1,560.599 
				116.6,560.3 115.8,559.4 115.5,558.2 115.1,557.4 110.6,554.4 109.4,554 108,553.8 105.1,553.8 104,553.5 103.2,552.9 
				102.7,550.099 102.3,548.7 103.2,548.099 103.1,546.7 102.8,545.599 102.4,544.5 101.8,543.7 97.5,540.7 88.1,538.4 87,537.599 
				86.6,536.5 86.3,536.099 83.6,534 82.5,532.8 82,532.599 81.5,532 81.3,529.7 82.8,529.099 84.7,530.2 86.7,531.9 88.2,533 
				89.9,533.2 91.6,532.7 94.9,531.4 97.3,530.9 99.9,530.9 102.4,531.5 104.4,532.8 106.2,534.2 108.1,535.099 110.2,535.5 
				112.4,535.4 114.5,535 116,534.4 117.4,533.4 119.1,531.9 121,530.4 122.9,529.599 124.9,529.2 127.3,529.099 131.3,529.3 
				133.1,528.7 133.9,527.099 135.2,527.599 136.8,527.3 138.2,526.4 139.2,525.2 140.3,526.4 142,527.3 143.7,528.099 145.3,528.5 
				147,528.4 149.8,527.099 151.4,526.8 155.2,527.599 156.8,527.4 157.3,525.8 157.1,525.2 156.5,524 156.3,523.3 156.4,522.599 
				156.6,521.2 156.8,519.599 157.6,517.8 157.6,516.9 157.6,516 157.7,515.099 159,510.5 159.2,509 158.7,507.7 157.6,506.599 
				153,504.099 152.4,503.3 153,501.3 152.4,500 151.1,494.099 151,490.8 151.9,488.9 153.1,488 154.8,485.599 157.5,483.9 
				157.8,482.599 157.8,481.099 158.6,479.7 159,479.5 160.2,479.599 160.9,479.4 162.5,478.3 164,477.2 165,477.2 166.1,477.3 
				167.5,476.9 170.3,476.9 171.1,478.5 171.5,479.8 172.2,480.9 173.9,481.7 175.4,481.599 176.8,481 179.4,479.3 180.3,478.9 
				181.6,478.4 183.8,478 184.3,477.8 185.3,477.099 186.7,475.9 187.8,474.5 188.3,473.4 187.8,472.3 186.8,471.4 184.5,469.8 
				183.3,468.5 183.4,467.2 184.9,464.9 185.9,463.8 187.3,463.4 188.9,463.3 190.4,463.5 191.9,463.8 192.8,464.5 193.3,465.599 
				195.1,471.9 195.2,473.5 194.7,475 193.9,476.3 192,478.7 192,479.9 193.3,481.2 197.4,483.7 199.6,484.7 200.6,485.3 
				201.4,486.3 203,489.599 204.5,492 204.6,493 204.2,494.8 204.1,496.599 204.6,497.9 205.7,498.7 210.9,499.4 213.5,501 
				215.9,502.9 218.9,504.4 222.9,505.9 224.4,506.099 224.9,506.3 226.1,507.099 227,507.5 229.4,508.3 230,508.3 232.9,508.3 
				234.2,508.5 235.7,509 240.9,511.2 242.2,511.2 253.6,518.8 256.5,520.099 259.5,520.9 262.6,521.2 265,521 269.8,520.2 
				275.1,520.5 277.3,520.099 279.2,519 283.6,515.599 290.2,512.599 292.4,511.2 293.2,511.5 293.4,511.2 294.3,509.099 
				294.6,506.099 295,504.7 295.3,504.2 297.1,497.2 297.1,496.3 295.5,491.2 295,488.599 295,481.7 295.2,480.5 295.6,479.2 
				296.8,476.9 297.1,475.7 296.7,473.8 294.3,471.099 294.3,469.3 298.3,468.099 300.5,467.9 302.2,468.599 303.5,471.4 
				304.5,472.099 305.9,472.3 307.2,472 309.1,471.5 309.2,470.7 309.2,469.7 308.8,468.5 307.7,466.4 307.4,465.099 307.5,460.2 
				308.3,454.4 308.2,453.599 307.6,453.2 302.7,452 301.6,451.5 300.5,450.8 299.8,449.9 299.5,448.7 299.1,448.099 299.4,446.2 
				300.6,443.3 301.4,442 302.4,440.9 303.8,440.2 305.3,440.2 306.6,441.4 307.5,443.2 308.4,444.5 309.8,444.5 314.3,445.099 
				315.6,445.8 316.5,445.8 317.5,445.5 319,445.4 323.5,446.4 325.2,446.3 337.8,443.2 346.9,442.099 350.5,441.2 351.9,441.5 
				353,442.2 354,443.2 354.5,444.099 354.9,445.599 355.2,448.4 356.2,450.9 358.6,451.3 361.4,450.4 363.4,448.7 364,447.599 
				364.8,443.3 365.3,442.2 366.3,440.8 367.7,439.2 368.1,439 369.4,438.599 370.9,438.3 372.3,438.4 373.4,439.4 377.6,441.4 
				378.4,442.7 379,444.2 379.2,445.7 378.5,449 378.8,450.2 379.6,451.099 381.2,452.2 380.1,456.7 380,458.3 380.3,459.9 
				380.2,461.4 379.6,462.8 377.9,460.9 377.2,459.9 376.6,458.8 375.4,453.4 374.8,452 370.9,453.3 371.3,454.7 373.4,457.599 
				373.9,459.3 374.1,460.2 374.8,462.599 375.8,467.7 375.6,468.4 375,469.7 374.1,472.4 371.9,476 369,479.599 367.5,482.3 
				365.1,484.7 364.5,485.9 364.1,487.3 362.9,489.8 362.7,491 362.5,494.2 363.2,499.2 363.2,500.9 362.6,501.8 361.5,502.3 
				360,502.8 358.3,503.5 357.4,504.4 356.9,505.4 356.4,507 355.6,508.4 353.8,510.5 353.2,511.9 352.6,514.599 351.9,515.599 
				342.7,521.3 340.9,522.9 339.9,525 339.4,527.3 339.2,529.8 339.6,531.099 340.7,532.3 342.5,533.2 344.8,533.8 350.9,532.5 
				352,531.7 354.7,528.5 355.3,527.5 356.6,525.4 358.3,526 360.4,527.3 363,527.8 364.9,528.3 367,529.7 369.3,530.599 
				371.5,529.599 373.2,529.3 375.4,531 377.4,534.2 378.9,538.099 377,548.2 377.2,550.5 377.7,551.3 378.8,552.2 380,552.9 
				382.3,553.599 391,558.099 392.1,558.3 395.3,558.599 397,559 398,559.9 398.7,560.8 401.3,562.5 406.3,567.099 407.4,568.3 
				407.7,569.5 408.1,572.5 409.7,578.599 409.7,581.599 409,583.099 408,584.3 407.3,585.599 407.5,587.2 408.6,590.099 			"/>
			<polygon fill="#AB987A" points="395,401.4 395,402.7 394.8,403.599 394.3,405.099 394.5,405.9 393.1,405.8 391.7,405.4 
				391.9,406.599 392.9,409.099 392.8,410.099 392,410.599 391,410.5 390.1,410.599 389.7,411.9 388.9,413 387.6,412.8 
				386.3,412.099 385.5,411.5 384.2,409.9 383.6,409.2 382.9,408.599 381.4,408.099 380.8,407.5 380.3,406.9 379.7,404.9 
				378.7,403.3 378.8,402.8 378.2,401.9 378.7,400.5 379.6,398.7 380.8,397.099 381.9,396.2 382.7,395.9 385.4,395.3 386.2,395.2 
				386.5,395.5 387,396.4 387.7,396.5 389.1,395.099 389.3,396.099 389.8,396.4 391.5,396.3 392.9,396.4 394.6,400.2 			"/>
			<polygon fill="#AB987A" points="271.1,313.6 269.8,317.3 269.1,318.6 268.4,319.5 267.6,319.9 266.3,319.8 259.4,317.7 
				258,316.6 254.4,315.1 251.5,313.3 250.3,313.2 244.5,316.2 243.6,316.9 242.1,319.9 240.7,320.2 239.6,319.9 238.5,319.4 
				237.3,319 236.9,318.6 237.1,317.8 239.4,311.2 239,311 239,308.4 241.4,308.4 249,309.1 249.6,309 251.2,308.6 251.8,308.6 
				253,309.8 254.3,310.3 257.4,310.5 258.8,310.8 261.5,311.8 			"/>
			<polygon fill="#AB987A" points="239,308.4 239,311 234.9,311.4 233.5,312 232.3,313 229.8,315.6 228.8,316.8 225.3,322.6 
				223.1,325.1 217.2,329.4 214.5,330.9 213.2,331.4 211.9,331.5 210.7,330.6 209.9,330.6 210.5,342.5 210.1,348.9 210.5,350.3 
				211.2,351.9 211.3,353.3 210.7,354.4 209.4,355.4 209.3,355.7 211.4,357.5 215.9,362.8 217,363.6 219,365.6 219.4,369.3 
				218.6,374.1 216.7,379.6 207,392.3 205.5,391.7 204.6,387.5 203.5,386.2 201.4,386.4 200.6,386.3 200,385.5 197.6,381.3 197,380 
				196.5,379.1 195.9,378.8 194.6,378.9 192,378.7 190,378.8 189.2,378.7 188.4,378.3 187.7,377.5 187.8,373.7 187.6,372.9 
				186.3,370 185.4,368.8 184.5,368.7 181.7,369.2 178.4,365.8 169.3,354.7 155.9,341.3 153.4,339.4 152,338.6 150.7,338.4 
				149.4,338.4 146.3,337.9 144.1,337.8 138.9,338.6 137.2,338.5 136.5,337.4 136.4,335.8 136.5,334.1 136.1,333.4 135,333 
				126.5,332.4 126.2,333 126.8,334.6 127.8,335.6 128.3,336.6 124.4,348.9 121.9,353.6 114.4,361.7 112.3,362 110.6,361.1 
				107.5,358.4 106,357.3 104.8,357.1 102.3,357.5 100.8,357.5 99.2,358.5 97.8,371 95.2,382.7 94.7,384.3 94.1,385.5 93.4,386.7 
				92.5,387.9 91.2,388.8 89.3,389 76.9,387.9 73.8,387.8 72.7,365.8 74.8,355.8 83,332.3 87,328.7 88.5,326.4 88.6,325.7 88.3,324 
				88.4,323.3 89.4,321.8 90,319 89.9,315.9 86.6,301 86.4,298.2 86.9,295.8 92.6,287.7 95.2,282.6 96.2,281.2 97.4,280.2 
				105.4,274.6 106.5,274.2 107.3,274.5 115.4,281.7 117.4,282.9 118.2,283.7 118.7,284.7 118.4,286.8 118.5,287.8 119.2,288 
				119.7,287.5 120.6,285.4 121.4,284.7 122.5,284.6 123.4,284.8 124.1,284.7 124.9,283.6 125.3,282.4 125.3,281.6 125.6,280.7 
				126.8,279.6 130.4,276.8 131.6,275.2 132.1,272.9 131.7,271.9 129.7,270.4 129.1,269.5 129.1,268.8 133.5,255.8 133.8,253.7 
				132.9,252.3 131.8,251 131.1,249.1 131.3,247.7 139.7,229 140,227.7 139.8,226.4 138.4,223.6 137.9,222.2 138,219.5 137.5,216.9 
				137.6,215.5 138.1,213.9 138.8,212.2 139.7,210.7 140.7,209.3 143.3,207.7 149.2,205.4 151.2,203.1 151.3,202.4 151.4,201.2 
				153.1,202.7 155.7,208.8 157.5,210.8 159.2,212.2 160.8,213 162.2,213 165.9,211.8 167.9,211.5 169.7,211.7 171.1,211.5 
				172.5,210.3 174.1,208.6 182.5,202 183.6,200.5 185.4,196.1 185.8,195.7 188.6,196 190.6,196 191.3,196.1 192.1,197.4 
				193.8,197.6 195.7,197.6 196.8,197.9 197.1,198.2 198.7,199.2 199.3,200 200.1,201.8 201,202.7 203.8,205.1 204.1,205.5 
				206.4,209.3 208,211.3 208.7,212.9 209.2,216.3 210.2,219.4 211.5,220 212.9,219.9 214.1,219.1 216.9,216.1 219.5,213.8 
				222.1,211.9 223.7,211.4 224.1,212.1 223.8,216.6 224.1,222.7 224.9,224 227.1,226.3 231,232.2 231.1,232.8 230.3,233.9 
				229,235.2 228.4,236.6 230,238 231.1,238.7 235.2,242.8 235,245.5 234,247.5 232.8,249.2 232.1,250.7 232.3,251.9 232.6,253.3 
				232.8,254.7 232.2,255.9 232,256.8 234,261.1 232.3,264 230.5,266 227,268.7 226,269.8 224.9,271.2 224,272.6 223.8,273.6 
				223.8,274.6 222.2,278.4 222,280.4 222,282.3 222.2,283.5 222.4,283.5 223,282.1 223.9,281.2 225.2,280.7 226.7,280.7 
				227.6,281.9 223.2,291.8 223.7,295.6 224.7,298.5 226.1,300.6 227.5,302.3 229.1,303.4 230.7,303.5 234,301.9 234.7,301.8 
				235.5,302.1 236.2,303.1 236.2,304.2 236,305.4 236.1,306.6 237,307.9 238.3,308.4 			"/>
			<polygon fill="#AB987A" points="234.2,368.3 234.6,368.9 234.5,369.7 234,370.2 231.4,371.4 230.7,372.7 230.9,374.2 
				232.4,377.3 230.1,376.9 229.3,377.3 229,378.7 228.8,378.8 228,377.5 226.4,372.1 227.1,369.5 227.5,368.5 228.3,367.6 
				229.6,366.7 230.8,366.4 232,366.7 			"/>
			<polygon fill="#AB987A" points="223.8,404.4 223.3,405 222.6,405.5 221.1,406.099 219.9,406.2 219.3,406 218.7,405.599 
				217.8,405 217.2,404.2 217.8,403.4 220.7,401.9 221.5,402.4 222.7,403.8 			"/>
			<polygon fill="#AB987A" points="217.6,415.3 217.8,416 216.5,415.9 215.5,415.3 215.1,414.7 215.2,413.599 215.1,413 
				214.4,412.2 212.8,410.9 212.1,409.9 210.5,411.599 209.5,412.2 208.1,412.3 207.5,411.5 207.1,411.3 205.8,411.5 204.6,411.5 
				204,412 202.7,411.3 202.2,410.8 201.9,410.099 202.3,409.599 202.3,408.8 202,407.099 202,406.3 202.5,405.4 203.6,404.099 
				204,403.4 204.1,402.4 204.1,401.2 204.2,400.099 204.7,399.4 205.7,399.3 208.5,400 209.7,400.2 210.4,399.9 211.3,400 
				213.2,400.599 213.9,401 212.9,402 212.9,402.3 213.4,403.099 214.2,403.9 215,404.2 215.9,404.3 216.7,404 216.2,405.2 
				215.8,407.3 215.7,409.3 215.9,410.8 216.9,411.2 217.5,412.099 217.5,413 216.5,413.4 217.3,414.599 			"/>
			<polygon fill="#AB987A" points="158.7,507.7 159.2,509 159,510.5 157.7,515.099 157.6,516 157.6,516.9 157.6,517.8 
				156.8,519.599 156.6,521.2 156.4,522.599 156.3,523.3 156.5,524 157.1,525.2 157.3,525.8 156.8,527.4 155.2,527.599 151.4,526.8 
				149.8,527.099 147,528.4 145.3,528.5 143.7,528.099 142,527.3 140.3,526.4 139.2,525.2 138.2,526.4 136.8,527.3 135.2,527.599 
				133.9,527.099 133.1,528.7 131.3,529.3 127.3,529.099 124.9,529.2 122.9,529.599 121,530.4 119.1,531.9 117.4,533.4 116,534.4 
				114.5,535 112.4,535.4 110.2,535.5 108.1,535.099 106.2,534.2 104.4,532.8 102.4,531.5 99.9,530.9 97.3,530.9 94.9,531.4 
				91.6,532.7 89.9,533.2 88.2,533 86.7,531.9 84.7,530.2 82.8,529.099 81.3,529.7 81.3,527.599 81,526.2 80.3,525.099 79.4,524.5 
				78.3,525 77.1,525.3 75.8,524.4 74,522.099 70.9,519.7 70.3,519.099 70.3,512.9 69.8,510.599 68.7,508.7 60.4,500.3 
				58.4,499.099 56.4,498.8 55.7,498.599 52.4,496.099 50.2,493.099 49.4,492.099 48.7,491.8 46.6,491.2 44.8,490 44.1,489.8 
				39.8,490.2 38.4,489.8 37.7,489.3 36.7,488.099 36.1,487.5 35.4,487.2 34.2,486.8 33.6,486.3 32.5,485.9 30.7,486 27.9,486.599 
				27.3,486.9 25.6,487.9 24.8,488 21.1,487 19.9,485.9 18.8,484.7 17.8,483.8 17.3,483.599 15.1,483.3 13.2,482.5 12.6,482.4 
				10.5,482.9 10.1,483.099 9.7,483.599 8.8,483.5 7.4,482.9 5.6,482.7 5.1,482.4 4.4,480.8 3.2,480.2 2.7,479.099 1,474.599 
				1.3,473.9 2.1,472.9 2.5,472.2 3.1,471.4 3.4,470 3.8,469.3 4.6,468.2 8.4,464.3 9.5,462.099 11.5,461.7 12.7,461.2 13.5,460.5 
				14,459.599 14.2,458.2 14,457.9 13.1,457.2 12.9,456.9 13,455.2 13.8,453.9 14.4,453.4 15.5,452.9 15.5,452 14,451.3 13.6,450.5 
				12.6,449.4 12.4,448.599 12.5,448.099 13.1,446.8 13.3,446 12.6,445.3 12.5,444.7 12.9,444 12.9,442.8 13.3,441.8 14.2,441.4 
				15.2,441.2 15.7,440.7 15.4,440.099 17.3,438.4 18.5,438.2 25.7,439.8 26.4,439.599 27.3,438.9 28.3,438.599 29.2,438.8 
				33.7,438.2 34.3,437.9 34,437.099 35.3,437.099 36.4,437.7 37.4,438.5 38.4,439 39.7,438.8 40.7,438.2 41.6,437.8 43,438 
				45.1,439.8 46.4,442.099 48,444 51,444.3 52,444.099 54.8,441.8 55.5,441.3 56.5,440.8 57.7,440.5 59.9,440.2 63.7,440.2 
				65,439.9 66.3,439.099 72.9,433.099 74.3,431.599 75.1,430 75.4,428.599 77,429.4 78.2,430.599 79,431.2 79.8,431 83,428.7 
				84.6,428.099 86.3,428.3 88.3,429.2 91.7,431.5 97.5,437.099 100.8,439.7 107.5,443.099 109.4,444.7 111.8,448.2 113.2,449.599 
				115.2,450.5 119.1,451.3 120.4,452.3 121.5,454.4 122.7,456.099 124.5,456.9 126.6,456.9 131.4,456.099 135.2,456 138.8,456.4 
				140.9,457.9 140.3,458.9 138.7,459.7 135.3,460.8 131.3,463.099 128.3,464.4 127.7,465.2 128.3,465.9 131.5,467 131.9,467.7 
				131.5,468.5 127.3,474.5 126.2,477.3 126.3,480.5 127.7,483.4 129.8,485.4 132.2,487.3 134.4,489.5 135.1,490.9 135.5,494.099 
				136,495.5 137,496.3 143.7,498.7 144.6,499.5 144.1,500.599 143.2,501.4 142.1,502.7 141.8,503.8 143,504.3 145,504.4 
				145.9,504.599 147.5,505.3 147.9,505.099 149,504.3 150.3,503.599 151.7,502.7 152.5,501.5 152.4,500 153,501.3 152.4,503.3 
				153,504.099 157.6,506.599 			"/>
		</g>
		<g>
			<polyline fill="none" stroke="#EEF2E0" stroke-width="2" stroke-linecap="round" stroke-linejoin="round" points="453.1,176.2 
				450.9,176.8 448.6,177.1 443.8,177.4 443.1,177.6 437.1,181.2 437,181 437.4,179.9 437.5,178.5 437.3,177 436.7,176 428.3,175.7 
				426.3,176.2 426,177.9 421.1,178.1 420.5,178 419.3,177 418.4,175.3 417.7,173.5 417.4,172 416.7,164.5 414,157.6 413.5,155.2 
				413.8,152.9 418.7,143.9 418.8,140.1 418.2,137.1 417.4,134.6 416.9,132.4 416.7,130.3 416.1,129 414.8,128.5 407.6,129.8 
				404.2,129.8 403,129.6 402.1,129 401.6,128 401.3,126.5 401.2,124.8 401.2,123.5 400.9,121.4 399.1,119.2 384.3,104.4 
				381.5,103.1 381.1,101.9 380.6,98.9 379.7,96.9 379.5,96.4 374.8,95.9 373.5,96 372.4,96.2 370.9,96.9 365.3,98.3 364.9,98 
				366.9,93.3 366.6,91.8 366.1,90.6 365.5,89.9 364.7,89.7 363.6,90.2 362.9,91.2 362.3,92.3 361.2,93.4 359.9,94.1 353.3,95 
				349.4,94.8 346.1,94.3 343.7,94.1 342.6,95.3 342,96.1 340.7,97 339.3,97.7 338.5,98 336.2,97.6 327.4,93.1 320,91.3 317.4,91.3 
				315.8,92.5 314.2,97.3 313.6,98.6 312.6,99.7 311.6,100.5 302.3,104.9 300.4,105.3 288.9,104.9 287.9,104.7 287.3,104.2 
				286.3,102.9 284.5,101.7 282.5,100.9 280.9,100.5 278.7,100.7 276.8,101.2 273.2,103.1 272.4,103.9 271.5,104.5 270.1,104.5 
				262.3,103.4 261.1,102.9 259.5,101 255.8,98.8 248.4,91.9 247.1,91.3 238.4,89 237.3,89 236.4,88 231.6,77.6 230.7,76.9 
				231.9,73.9 231.7,70.5 230.6,67 230.2,65.3 230.2,63.6 230.5,62.1 236.5,43.4 237.8,43.4 238.2,42.1 239.1,41.4 240.2,41.1 
				241.6,41.1 242.5,40.9 244.6,39.9 245.9,39.7 248.9,39.7 249.5,39.5 250.6,38.9 251.2,38.7 255.8,38.7 257.9,39 262.3,40.3 
				264.5,40.6 264.9,40.8 266.1,42.5 267.1,43.2 268.4,43.4 268.8,43.3 269.7,42.5 270.3,42.5 271.5,42.6 272,42.5 272.8,41.9 
				273.6,41.1 274.1,39.9 274.2,38.5 274.3,36.8 274.5,35.4 275.1,34.1 276.1,32.6 278,31.1 280.3,30.6 285.2,30.7 286.6,30.2 
				287.6,30.1 289.2,31.5 290.4,32.2 293,35.9 294,36.9 294.2,37.5 294.3,38.5 294.3,40.1 294.5,40.8 295.4,41.3 298.1,43.6 
				298.4,44 298.9,45.3 299.3,47 299.7,47.8 301.2,48.3 301.9,48.6 302.4,49.1 302.6,49.8 302.7,51.5 303,52.7 303.7,53.5 
				304.9,54.3 305.6,53.5 311.8,38.5 324.6,7.6 327.4,1 328.5,2 329.3,3.2 330.6,5.7 330.9,6 331.5,6.1 331.8,6.3 331.8,7.3 
				332.2,8.5 332.5,8.8 333.3,8.9 333.9,9.4 334.1,10.6 334.5,11.2 335,11.7 342.3,14.7 343.5,14.9 347.2,14.2 348.8,14.3 
				349.9,14.8 350.5,15.6 351.1,17 351.4,18.9 351.7,19.5 352.4,20.1 353.8,21.1 354.3,22 354.9,24.6 355.4,25.8 356.2,26.8 
				357.3,27.7 360.8,29.6 361.4,30.1 361.8,31.6 362.2,32.2 363,32.8 363.6,32.9 364.1,32.7 367.4,32.8 372.5,32.2 375,31.5 
				379.1,29.4 380.4,29.4 381.6,29.8 382.8,29.9 384,29.8 385.3,29.5 389.3,27.9 392.2,27.6 393.5,26.7 395.7,24.7 398.4,23.4 
				399.8,22.5 400.8,21.3 401,20 400.8,18.7 401,17.6 401.8,16.7 401.9,17 404.3,17.2 406.2,17.7 406.9,18 408.3,18.9 409.6,20.1 
				410.8,21.5 411.7,23 413.6,28.7 415,31.3 416.7,31.2 418.1,28.9 419,28.1 420.7,27.8 424.3,28.4 425.6,28.3 431,26.8 433.7,25.5 
				434.9,23.9 435.5,22.5 436.6,22.5 437.9,23.2 438.9,24.1 440.3,25.8 441.1,26.3 444.5,27.4 446.3,27.5 450.1,26.9 452.2,26.8 
				454.2,27.5 456.1,28.7 459.6,31.7 460.6,32.2 461.8,32.4 463.1,32 465.2,30.3 466.4,30 467.7,30.2 			"/>
			<polyline fill="none" stroke="#EEF2E0" stroke-width="2" stroke-linecap="round" stroke-linejoin="round" points="455.1,392.3 
				456.7,389.7 458.9,386.7 460.7,383.6 460.8,380.4 458.4,378.5 457.5,378.1 455.7,377.6 455,377.3 454.1,376.2 454.3,375.2 
				455.2,374.1 456.6,373.1 459,370.7 460.3,367.6 460.7,364.2 460.6,360.7 458.1,354.3 457.9,351.6 460.6,350.9 466.2,352.5 
				468.8,352.5 469.7,350.6 469.4,349.8 468.6,348.3 468.6,347.4 470.4,345 471,343.7 472.9,341 473.4,339.6 473.5,337 472.9,335.6 
				471.5,334.6 469.5,333.4 468,332.3 467.2,331.1 467.1,329.7 467.8,328 468.9,327.1 470.5,326.7 472.1,326.8 473.5,327 475,327.4 
				476,327.5 476.5,327.1 476.6,325.7 476.4,323.9 476,322.1 475.8,320.4 476,318.5 477.3,315.4 477.5,314.1 478.2,305.6 
				478.5,304.2 479.3,302.8 479.6,301.5 479.5,300.6 478,295.7 478,294 478.7,290.7 478.7,289.2 478.3,288.4 476.2,285.8 475.4,284 
				475.4,282.5 475.9,281 477.9,277.6 478.6,275.8 478.7,274 478,272.2 476.3,270.3 480.1,264.6 480.5,263.6 480.8,262.4 
				480.8,261.2 480.5,258.8 480.3,255.6 479.9,253.8 479.2,252 476.5,247.1 475.5,245.8 474.3,244.6 472.2,242.4 472.4,240.4 
				472.4,238.4 471.8,234.7 471.2,233.1 468.4,228.4 467.8,226.9 467.3,223.4 466.9,221.9 466.4,221.2 464.9,220.5 463.5,219.3 
				462.3,217.9 460,213.6 459.5,212.3 459.5,210.4 460,203.8 459.9,203.5 458.3,202.5 457.4,201.4 457,200.5 456.6,199.5 
				456.5,198.6 456.6,196.6 456.4,195.6 456.2,194.5 455.8,193.6 454.5,191.8 454.5,191 454.6,190.1 454.6,189.1 454.1,187.3 
				452.4,183.8 451.9,181.8 451.9,180.1 452,179.4 453.1,176.2 454.3,175.1 454.8,173.8 455,172.2 455,170.6 454.8,169.2 
				453.8,167.1 453.6,166 453.9,162.6 454.7,159.7 456.1,157.2 458.4,154.7 459.5,152.7 460.2,149.6 460.5,146.4 460.1,144.2 
				458.4,141.4 457.4,140.4 456,140 454.5,139.8 453.5,139.3 451.5,137.6 451.4,137.3 452.1,135.4 452.1,133.9 452.4,132 
				452.4,130.6 452.1,127.4 453,127.3 453.8,126.4 454.6,125.2 454.9,124.1 454.9,123.7 454.1,122.7 453.7,122 452.6,116.8 
				452.2,116 451,115.3 450,114.2 449.3,112.8 449.2,111.9 450.5,105 450.7,103.3 450.5,101.6 449.4,98.8 449.4,97.1 451,91.8 
				451.5,90.9 454,92.1 456,90.9 456.3,88 455.7,84.6 454.8,82.2 454.3,79.7 454.6,76.7 455.8,70.3 455.7,66.3 455.3,64.9 
				454.3,64.1 453.9,63.3 453.9,62.4 454.2,59.8 454.1,58.7 453.9,57.3 453.4,56 452.6,55.3 451.8,55.5 450.8,55.9 449.8,55.8 
				449.3,54.6 449.7,54 451.9,51.5 450.9,50.9 449.7,50.7 447.6,50.6 447.1,50.2 447.4,48.9 449.1,45.4 452.1,42.1 452.3,41.2 
				451.3,40.3 447.2,40.6 445.7,39.8 445.7,39.2 446.1,38.6 448,37.1 450.1,35.8 454.7,34.9 455.8,35.1 458.5,35.9 463.5,36.4 
				465.3,36.2 465.7,35.9 466.2,35.3 466.7,34.2 466.8,32.4 466.6,30.9 467.7,30.2 469.3,30.5 470.2,30.5 473.5,29.5 474.7,29.5 
				480.7,31 483.6,32.1 486.2,33.7 495.8,42.7 499.7,44.7 506.8,48.1 508.6,48.8 514.6,49.6 519.2,51.3 523.2,54.2 537.2,70.3 
				547.1,87.9 549.1,89.9 569.7,103.1 581.7,113.1 584.3,115.8 586.6,118.8 588.7,122.3 593.901,133.6 597.3,138.5 602.5,141.9 
				606.3,143.5 610,145.6 613.2,148.3 617.6,155.8 623,163.2 626.2,166.6 622.2,172 620.1,176.4 611.3,188.6 610.2,191.1 609.7,192 
				608.1,192.7 607.401,193.5 604.7,198.6 596.7,210.1 595.901,210.8 595,211.5 594.1,212 593.3,212.2 592.8,212.6 592.401,213.6 
				591.7,214.5 589.1,215.6 588.1,216.3 587.1,218.4 586.2,223.6 584.2,229.8 584.2,233.5 586,241.3 586.6,247.1 585.8,246.7 
				583.901,246.9 582.3,247.9 581.1,249.4 580.1,251.1 579.6,253.9 580.7,256.9 583,259.4 585.7,260.9 586.6,260.2 586.6,261.8 
				586.2,264.7 585,266.6 585.401,267 			"/>
			<polyline fill="none" stroke="#EEF2E0" stroke-width="2" stroke-linecap="round" stroke-linejoin="round" points="244.6,708.3 
				244.2,708.2 243.2,707.7 242.7,707.5 219.9,708 219,707.9 217.8,707.3 217.2,707.099 216.4,707.099 214.2,707.4 204.2,707.5 
				202.6,707.099 201.2,706.2 198.6,704 197.5,703.2 197,702.3 197,701.099 197.2,699.8 197.2,698.5 196.3,696.9 196.1,695.8 
				187.1,686.099 185.4,683.3 184.9,680 185.2,666.099 185.5,665.2 188.1,662 188.6,660.599 188.6,659.2 188,657.599 186.7,655.099 
				186.5,653.8 186.9,652.2 188.7,649.599 188.4,649 184.7,647.599 180.4,644.9 178.7,644.4 177.4,644.7 176.2,645.3 174.7,645.599 
				173,645.2 170.2,642.9 168.7,642 167.5,641.7 166.1,641.5 164.7,641.5 163.5,641.7 162,642.7 159.3,645.7 157.8,646.7 156.2,647 
				155,646.4 154,645.3 151.8,641.8 151.5,641.2 151.6,640.4 152.7,638.9 153.1,638.2 152.3,636 149.7,634 144.4,630.8 
				141.4,628.599 140.7,627.4 140.1,623.5 139.2,621.7 133.8,614 133.1,612.5 133,611.599 133.5,609.2 133.3,608.4 132.2,607.3 
				131.9,606.5 131.9,605.8 132.1,605 132.8,603.599 132.1,599.2 131.6,597.9 130.5,596.5 129.2,595.3 128.1,594.099 126.8,590.8 
				124.5,586.7 124.2,585.3 124.1,581.4 123.7,579.7 121,575.099 120.5,573.7 119.9,569.9 118.5,566 117.1,560.599 116.6,560.3 
				115.8,559.4 115.5,558.2 115.1,557.4 110.6,554.4 109.4,554 108,553.8 105.1,553.8 104,553.5 103.2,552.9 102.7,550.099 
				102.3,548.7 103.2,548.099 103.1,546.7 102.8,545.599 102.4,544.5 101.8,543.7 97.5,540.7 88.1,538.4 87,537.599 86.6,536.5 
				86.3,536.099 83.6,534 82.5,532.8 82,532.599 81.5,532 81.3,529.7 			"/>
			<polyline fill="none" stroke="#EEF2E0" stroke-width="2" stroke-linecap="round" stroke-linejoin="round" points="152.4,500 
				153,501.3 152.4,503.3 153,504.099 157.6,506.599 158.7,507.7 159.2,509 159,510.5 157.7,515.099 157.6,516 157.6,516.9 
				157.6,517.8 156.8,519.599 156.6,521.2 156.4,522.599 156.3,523.3 156.5,524 157.1,525.2 157.3,525.8 156.8,527.4 155.2,527.599 
				151.4,526.8 149.8,527.099 147,528.4 145.3,528.5 143.7,528.099 142,527.3 140.3,526.4 139.2,525.2 138.2,526.4 136.8,527.3 
				135.2,527.599 133.9,527.099 133.1,528.7 131.3,529.3 127.3,529.099 124.9,529.2 122.9,529.599 121,530.4 119.1,531.9 
				117.4,533.4 116,534.4 114.5,535 112.4,535.4 110.2,535.5 108.1,535.099 106.2,534.2 104.4,532.8 102.4,531.5 99.9,530.9 
				97.3,530.9 94.9,531.4 91.6,532.7 89.9,533.2 88.2,533 86.7,531.9 84.7,530.2 82.8,529.099 81.3,529.7 81.3,527.599 81,526.2 
				80.3,525.099 79.4,524.5 78.3,525 77.1,525.3 75.8,524.4 74,522.099 70.9,519.7 70.3,519.099 70.3,512.9 69.8,510.599 
				68.7,508.7 60.4,500.3 58.4,499.099 56.4,498.8 55.7,498.599 52.4,496.099 50.2,493.099 49.4,492.099 48.7,491.8 46.6,491.2 
				44.8,490 44.1,489.8 39.8,490.2 38.4,489.8 37.7,489.3 36.7,488.099 36.1,487.5 35.4,487.2 34.2,486.8 33.6,486.3 32.5,485.9 
				30.7,486 27.9,486.599 27.3,486.9 25.6,487.9 24.8,488 21.1,487 19.9,485.9 18.8,484.7 17.8,483.8 17.3,483.599 15.1,483.3 
				13.2,482.5 12.6,482.4 10.5,482.9 10.1,483.099 9.7,483.599 8.8,483.5 7.4,482.9 5.6,482.7 5.1,482.4 4.4,480.8 3.2,480.2 
				2.7,479.099 1,474.599 1.3,473.9 2.1,472.9 2.5,472.2 3.1,471.4 3.4,470 3.8,469.3 4.6,468.2 8.4,464.3 9.5,462.099 11.5,461.7 
				12.7,461.2 13.5,460.5 14,459.599 14.2,458.2 14,457.9 13.1,457.2 12.9,456.9 13,455.2 13.8,453.9 14.4,453.4 15.5,452.9 
				15.5,452 14,451.3 13.6,450.5 12.6,449.4 12.4,448.599 12.5,448.099 13.1,446.8 13.3,446 12.6,445.3 12.5,444.7 12.9,444 
				12.9,442.8 13.3,441.8 14.2,441.4 15.2,441.2 15.7,440.7 15.4,440.099 17.3,438.4 18.5,438.2 25.7,439.8 26.4,439.599 
				27.3,438.9 28.3,438.599 29.2,438.8 33.7,438.2 34.3,437.9 34,437.099 35.3,437.099 36.4,437.7 37.4,438.5 38.4,439 39.7,438.8 
				40.7,438.2 41.6,437.8 43,438 45.1,439.8 46.4,442.099 48,444 51,444.3 52,444.099 54.8,441.8 55.5,441.3 56.5,440.8 57.7,440.5 
				59.9,440.2 63.7,440.2 65,439.9 66.3,439.099 72.9,433.099 74.3,431.599 75.1,430 75.4,428.599 			"/>
			<polyline fill="none" stroke="#EEF2E0" stroke-width="2" stroke-linecap="round" stroke-linejoin="round" points="271.1,313.6 
				273,315.2 274.3,315.9 275.6,316.4 280.1,316.4 281.1,316.9 281.3,318.7 280.3,320.7 279.5,322.7 280.4,325 282,326.7 283,327.1 
				284.2,326.9 285.1,326.9 286.2,327.2 287.3,327.7 287.8,328.4 287.9,329.2 287.9,330.7 288.2,331.5 289,332.6 289.5,333 
				290.2,332.9 290.9,332.1 291.5,330.2 292.5,329.9 294.8,330.2 297,330.8 303.4,333.7 304.3,334.4 305.7,336.3 307.2,338.1 
				307.6,338.9 308.6,340.1 314.8,344.7 315.9,344.7 317.7,343.7 318.7,343.5 320.4,343.8 321,343.6 325.7,341 326.3,340.4 
				327.3,339.1 327.8,338.8 329.6,338.6 330.2,338.4 333.3,336.2 342.8,331.7 346.8,330.7 347.9,330 349.6,328.3 350.2,326.9 
				351,326.2 352.9,325.8 354.7,325.2 356,325 357.7,325.5 359.3,325.5 361,325.2 362.5,324.5 363.4,323.2 363.6,322.4 363.5,321.7 
				363,320.3 363,319.4 363.3,319 364,318.7 364.5,318.2 365,317.5 366.7,310.2 367.1,309.5 367.7,309 383.3,308.2 391,309.6 
				392.2,310.5 392.1,313 389.2,326.6 388.4,327.6 384,329.9 381.4,330.5 378.8,330 378.9,332 380.2,333.2 384.4,334.8 385.6,335.7 
				386.4,336.4 387.6,338.2 387.8,338.6 387.9,342 388.4,345.3 389.5,348.4 391.7,351.1 396,353.2 408.1,355.7 415.8,359.1 
				419,363.8 421.4,368.1 423.6,370.9 426,371.4 427.5,371.3 429.5,371.7 430.9,372.5 430.7,374.1 431.1,374.7 435,378.8 
				434.9,378.8 432.6,378 430.9,378.3 427.6,380.7 426.7,381.1 421,381.5 419.4,381.4 418.3,381.5 417.9,382.1 418.1,384 
				418.7,386.5 419.6,388.7 421,389.8 424.5,390.5 425.9,391.599 426.1,393.599 425.3,395.8 419.6,405.099 419.8,409 419.6,410.3 
				419.7,411.4 421.4,415.099 421.9,415.8 422.7,416.4 423.9,416.7 425.4,416.599 428.8,413.2 429.8,412.8 431.8,413.5 434.2,417.2 
				435.9,418.099 437.3,417.8 440.5,415.5 442.8,414.099 449.6,411.7 451.7,410.4 452.4,408.4 452.2,394.7 455.1,392.3 458.7,391.9 
				460.5,391.9 461.8,392.599 462.3,393.7 462.8,396.7 463.1,397.9 463.7,398.7 464.3,399.3 464.6,400 464.4,401.3 467.3,401.4 
				469.5,401.8 470.7,403.099 470.7,406.099 469.1,410.5 469.5,412 470.3,412.3 474.4,409.5 475.7,408.099 478.1,403.9 480.3,403.7 
				482,402.599 483.5,401.3 484.3,399.099 484.4,397.599 484.6,396.599 485.1,395.599 489.3,391.5 490.2,390.3 494.7,382.9 
				496.5,380.7 498.6,378.5 500.6,376.9 502.901,375.9 508.401,375 510.5,374.5 512.3,373.5 514,371.7 			"/>
			<polyline fill="none" stroke="#EEF2E0" stroke-width="2" stroke-linecap="round" stroke-linejoin="round" points="407.2,769.3 
				405.7,768.8 401.9,769.599 400.8,769.599 399.8,769.2 398.7,769.099 395.9,769.599 394.2,769.599 382.7,766.5 381.4,765.8 
				380.4,764.8 378.6,762.4 378.5,764.2 374.7,764 374.3,763.7 374.1,763.099 373.2,763.5 371.9,763.5 371,763.2 370.6,762.3 
				370.1,761.7 368.8,760.599 368.5,760.5 367.8,760.7 367.7,762.3 364.3,763.8 360.5,764.099 346.4,762.5 344.3,762.599 
				342.2,763.2 341.4,763 339.8,761.7 337.8,761.099 337,760.599 336,759.4 334.3,756.7 333,755.4 311.1,741.3 299.6,733.9 292,729 
				275.4,718.3 274.3,718.099 274.1,717.8 273.8,716.3 273.5,715.599 273.1,715 272.6,714.9 271.2,715 270.7,714.599 269.7,712.9 
				269,712.4 266.3,711.8 261.6,709.4 257.6,708.3 244.8,708.4 244.6,708.3 245.4,707.599 247.7,706.8 249,705.9 249.6,705.099 
				250.6,702.4 251.8,699.7 255,694.8 259.8,688.599 261.5,685.099 261.9,681.3 261.5,679.5 260,676.3 259.6,674.5 259.6,673 
				262.7,663.099 264.1,660.2 266.1,657.9 267.6,657 269.2,656.8 274.3,657.599 275.9,657.599 282.2,656.7 283.3,656.599 
				285.3,656.8 287,657.3 289.8,658.9 291.4,659.5 294.9,659.3 298.4,657.9 304.9,654.4 307.9,653.3 309.5,652.599 310.4,651.7 
				311.2,650.5 312.3,649.7 313.7,649.4 315.2,649.7 318.4,651 321.6,651.9 322.8,652.7 324,653.8 325.4,654.599 327,654.5 
				328,653.599 328.4,652.3 328.5,650.8 328.1,647.599 328.2,646.2 328.7,644.9 329.6,643.3 330.8,640.4 331.4,637 331.4,633.5 
				330.4,628.9 330.9,627.7 332,626.9 335.2,626.3 339.4,624.099 340.4,623.099 340.7,621.4 340.2,619.8 339,619 337.4,618.5 
				336.3,617.4 335.6,616 335,612.8 333.7,610 333.3,608.3 332.7,607.2 331.3,606.5 324.6,603.7 322.4,603.2 320.9,602.8 
				320.4,601.8 320.5,600.099 319.8,595.2 319.9,593.599 320.6,592.2 322.4,589.5 323.7,587 324.8,583.5 325.1,580 323.8,577.5 
				321.6,574.9 321.4,572.099 322.7,569.2 325.8,564.8 326.9,563.8 328.1,563.7 329.6,565 329.9,565.2 332.1,565.3 332.9,565.2 
				334.6,564.599 336,564.8 337.1,565.8 338,566.9 339.3,567.599 340,567.9 342.8,569.599 344,570.7 345.7,572.7 346.5,572.8 
				347.9,572.4 349.3,572.2 350.6,572.099 351.8,572.4 354.2,574.599 354.3,577.4 352.6,579.8 348.3,581.4 347.6,582.4 346.5,584.9 
				346.4,586.3 347.6,588.9 347.4,590.5 346.3,592 344.9,592.5 343.4,592.3 342,591.599 341,591.599 340.5,593.099 340.4,594.9 
				340.7,596.3 348.9,610.7 350.2,612.4 351.7,612.599 353.1,612.3 354.5,612.3 355.9,612 360.7,608.8 360.9,608 360.2,607.3 
				356.3,605.099 354.5,603.3 354.1,602.599 354.3,602.099 355.5,601 356.3,599.8 358.6,595.7 359.4,593 360.2,591.8 361.7,590.7 
				362.9,590 363.6,589 363.8,587 363,581.3 363.4,578 364.7,575.7 367.1,574.4 370.4,573.8 373.1,573.9 375.8,574.4 380.8,575.9 
				381.3,576 383.1,576 385.5,575.7 386.4,577.4 386.9,578 392,580.4 392.3,581 393.9,582.9 395.8,586.4 397.1,588.4 397.5,589.9 
				397.5,590.4 400.7,593.2 403.6,593.4 410.2,592.5 409.2,591.4 408.6,590.099 407.5,587.2 407.3,585.599 408,584.3 409,583.099 
				409.7,581.599 409.7,578.599 408.1,572.5 407.7,569.5 407.4,568.3 406.3,567.099 401.3,562.5 398.7,560.8 398,559.9 397,559 
				395.3,558.599 392.1,558.3 391,558.099 382.3,553.599 380,552.9 378.8,552.2 377.7,551.3 377.2,550.5 377,548.2 378.9,538.099 
				377.4,534.2 375.4,531 373.2,529.3 371.5,529.599 369.3,530.599 367,529.7 364.9,528.3 363,527.8 360.4,527.3 358.3,526 
				356.6,525.4 355.3,527.5 354.7,528.5 352,531.7 350.9,532.5 344.8,533.8 342.5,533.2 340.7,532.3 339.6,531.099 339.2,529.8 
				339.4,527.3 339.9,525 340.9,522.9 342.7,521.3 351.9,515.599 352.6,514.599 353.2,511.9 353.8,510.5 355.6,508.4 356.4,507 
				356.9,505.4 357.4,504.4 358.3,503.5 360,502.8 361.5,502.3 362.6,501.8 363.2,500.9 363.2,499.2 362.5,494.2 362.7,491 
				362.9,489.8 364.1,487.3 364.5,485.9 365.1,484.7 367.5,482.3 369,479.599 371.9,476 374.1,472.4 375,469.7 375.6,468.4 
				375.8,467.7 374.8,462.599 374.1,460.2 373.9,459.3 373.4,457.599 371.3,454.7 370.9,453.3 374.8,452 375.4,453.4 376.6,458.8 
				377.2,459.9 377.9,460.9 379.6,462.8 380.2,461.4 380.3,459.9 380,458.3 380.1,456.7 381.2,452.2 379.6,451.099 378.8,450.2 
				378.5,449 379.2,445.7 379,444.2 378.4,442.7 377.6,441.4 373.4,439.4 372.3,438.4 370.9,438.3 369.4,438.599 368.1,439 
				367.7,439.2 366.3,440.8 365.3,442.2 364.8,443.3 364,447.599 363.4,448.7 361.4,450.4 358.6,451.3 356.2,450.9 355.2,448.4 
				354.9,445.599 354.5,444.099 354,443.2 353,442.2 351.9,441.5 350.5,441.2 346.9,442.099 337.8,443.2 325.2,446.3 323.5,446.4 
				319,445.4 317.5,445.5 316.5,445.8 315.6,445.8 314.3,445.099 309.8,444.5 308.4,444.5 307.5,443.2 306.6,441.4 305.3,440.2 
				303.8,440.2 302.4,440.9 301.4,442 300.6,443.3 299.4,446.2 299.1,448.099 299.5,448.7 299.8,449.9 300.5,450.8 301.6,451.5 
				302.7,452 307.6,453.2 308.2,453.599 308.3,454.4 307.5,460.2 307.4,465.099 307.7,466.4 308.8,468.5 309.2,469.7 309.2,470.7 
				309.1,471.5 307.2,472 305.9,472.3 304.5,472.099 303.5,471.4 302.2,468.599 300.5,467.9 298.3,468.099 294.3,469.3 
				294.3,471.099 296.7,473.8 297.1,475.7 296.8,476.9 295.6,479.2 295.2,480.5 295,481.7 295,488.599 295.5,491.2 297.1,496.3 
				297.1,497.2 295.3,504.2 295,504.7 294.6,506.099 294.3,509.099 293.4,511.2 293.2,511.5 292.4,511.2 290.2,512.599 
				283.6,515.599 279.2,519 277.3,520.099 275.1,520.5 269.8,520.2 265,521 262.6,521.2 259.5,520.9 256.5,520.099 253.6,518.8 
				242.2,511.2 240.9,511.2 235.7,509 234.2,508.5 232.9,508.3 230,508.3 229.4,508.3 227,507.5 226.1,507.099 224.9,506.3 
				224.4,506.099 222.9,505.9 218.9,504.4 215.9,502.9 213.5,501 210.9,499.4 205.7,498.7 204.6,497.9 204.1,496.599 204.2,494.8 
				204.6,493 204.5,492 203,489.599 201.4,486.3 200.6,485.3 199.6,484.7 197.4,483.7 193.3,481.2 192,479.9 192,478.7 193.9,476.3 
				194.7,475 195.2,473.5 195.1,471.9 193.3,465.599 192.8,464.5 191.9,463.8 190.4,463.5 188.9,463.3 187.3,463.4 185.9,463.8 
				184.9,464.9 183.4,467.2 183.3,468.5 184.5,469.8 186.8,471.4 187.8,472.3 188.3,473.4 187.8,474.5 186.7,475.9 185.3,477.099 
				184.3,477.8 183.8,478 181.6,478.4 180.3,478.9 179.4,479.3 176.8,481 175.4,481.599 173.9,481.7 172.2,480.9 171.5,479.8 
				171.1,478.5 170.3,476.9 167.5,476.9 166.1,477.3 165,477.2 164,477.2 162.5,478.3 160.9,479.4 160.2,479.599 159,479.5 
				158.6,479.7 157.8,481.099 157.8,482.599 157.5,483.9 154.8,485.599 153.1,488 151.9,488.9 151,490.8 151.1,494.099 152.4,500 
				152.5,501.5 151.7,502.7 150.3,503.599 149,504.3 147.9,505.099 147.5,505.3 145.9,504.599 145,504.4 143,504.3 141.8,503.8 
				142.1,502.7 143.2,501.4 144.1,500.599 144.6,499.5 143.7,498.7 137,496.3 136,495.5 135.5,494.099 135.1,490.9 134.4,489.5 
				132.2,487.3 129.8,485.4 127.7,483.4 126.3,480.5 126.2,477.3 127.3,474.5 131.5,468.5 131.9,467.7 131.5,467 128.3,465.9 
				127.7,465.2 128.3,464.4 131.3,463.099 135.3,460.8 138.7,459.7 140.3,458.9 140.9,457.9 138.8,456.4 135.2,456 131.4,456.099 
				126.6,456.9 124.5,456.9 122.7,456.099 121.5,454.4 120.4,452.3 119.1,451.3 115.2,450.5 113.2,449.599 111.8,448.2 109.4,444.7 
				107.5,443.099 100.8,439.7 97.5,437.099 91.7,431.5 88.3,429.2 86.3,428.3 84.6,428.099 83,428.7 79.8,431 79,431.2 
				78.2,430.599 77,429.4 75.4,428.599 75.7,426.9 73.8,387.8 			"/>
			<polygon fill="none" stroke="#EEF2E0" stroke-width="2" stroke-linecap="round" stroke-linejoin="round" points="221.1,406.099 
				219.9,406.2 219.3,406 218.7,405.599 217.8,405 217.2,404.2 217.8,403.4 220.7,401.9 221.5,402.4 222.7,403.8 223.8,404.4 
				223.3,405 222.6,405.5 			"/>
			<polygon fill="none" stroke="#EEF2E0" stroke-width="2" stroke-linecap="round" stroke-linejoin="round" points="208.5,400 
				209.7,400.2 210.4,399.9 211.3,400 213.2,400.599 213.9,401 212.9,402 212.9,402.3 213.4,403.099 214.2,403.9 215,404.2 
				215.9,404.3 216.7,404 216.2,405.2 215.8,407.3 215.7,409.3 215.9,410.8 216.9,411.2 217.5,412.099 217.5,413 216.5,413.4 
				217.3,414.599 217.6,415.3 217.8,416 216.5,415.9 215.5,415.3 215.1,414.7 215.2,413.599 215.1,413 214.4,412.2 212.8,410.9 
				212.1,409.9 210.5,411.599 209.5,412.2 208.1,412.3 207.5,411.5 207.1,411.3 205.8,411.5 204.6,411.5 204,412 202.7,411.3 
				202.2,410.8 201.9,410.099 202.3,409.599 202.3,408.8 202,407.099 202,406.3 202.5,405.4 203.6,404.099 204,403.4 204.1,402.4 
				204.1,401.2 204.2,400.099 204.7,399.4 205.7,399.3 			"/>
			<polygon fill="none" stroke="#EEF2E0" stroke-width="2" stroke-linecap="round" stroke-linejoin="round" points="230.9,374.2 
				232.4,377.3 230.1,376.9 229.3,377.3 229,378.7 228.8,378.8 228,377.5 226.4,372.1 227.1,369.5 227.5,368.5 228.3,367.6 
				229.6,366.7 230.8,366.4 232,366.7 234.2,368.3 234.6,368.9 234.5,369.7 234,370.2 231.4,371.4 230.7,372.7 			"/>
			<polygon fill="none" stroke="#EEF2E0" stroke-width="2" stroke-linecap="round" stroke-linejoin="round" points="271.1,313.6 
				269.8,317.3 269.1,318.6 268.4,319.5 267.6,319.9 266.3,319.8 259.4,317.7 258,316.6 254.4,315.1 251.5,313.3 250.3,313.2 
				244.5,316.2 243.6,316.9 242.1,319.9 240.7,320.2 239.6,319.9 238.5,319.4 237.3,319 236.9,318.6 237.1,317.8 239.4,311.2 
				239,311 234.9,311.4 233.5,312 232.3,313 229.8,315.6 228.8,316.8 225.3,322.6 223.1,325.1 217.2,329.4 214.5,330.9 213.2,331.4 
				211.9,331.5 210.7,330.6 209.9,330.6 210.5,342.5 210.1,348.9 210.5,350.3 211.2,351.9 211.3,353.3 210.7,354.4 209.4,355.4 
				209.3,355.7 211.4,357.5 215.9,362.8 217,363.6 219,365.6 219.4,369.3 218.6,374.1 216.7,379.6 207,392.3 205.5,391.7 
				204.6,387.5 203.5,386.2 201.4,386.4 200.6,386.3 200,385.5 197.6,381.3 197,380 196.5,379.1 195.9,378.8 194.6,378.9 192,378.7 
				190,378.8 189.2,378.7 188.4,378.3 187.7,377.5 187.8,373.7 187.6,372.9 186.3,370 185.4,368.8 184.5,368.7 181.7,369.2 
				178.4,365.8 169.3,354.7 155.9,341.3 153.4,339.4 152,338.6 150.7,338.4 149.4,338.4 146.3,337.9 144.1,337.8 138.9,338.6 
				137.2,338.5 136.5,337.4 136.4,335.8 136.5,334.1 136.1,333.4 135,333 126.5,332.4 126.2,333 126.8,334.6 127.8,335.6 
				128.3,336.6 124.4,348.9 121.9,353.6 114.4,361.7 112.3,362 110.6,361.1 107.5,358.4 106,357.3 104.8,357.1 102.3,357.5 
				100.8,357.5 99.2,358.5 97.8,371 95.2,382.7 94.7,384.3 94.1,385.5 93.4,386.7 92.5,387.9 91.2,388.8 89.3,389 76.9,387.9 
				73.8,387.8 72.7,365.8 74.8,355.8 83,332.3 87,328.7 88.5,326.4 88.6,325.7 88.3,324 88.4,323.3 89.4,321.8 90,319 89.9,315.9 
				86.6,301 86.4,298.2 86.9,295.8 92.6,287.7 95.2,282.6 96.2,281.2 97.4,280.2 105.4,274.6 106.5,274.2 107.3,274.5 115.4,281.7 
				117.4,282.9 118.2,283.7 118.7,284.7 118.4,286.8 118.5,287.8 119.2,288 119.7,287.5 120.6,285.4 121.4,284.7 122.5,284.6 
				123.4,284.8 124.1,284.7 124.9,283.6 125.3,282.4 125.3,281.6 125.6,280.7 126.8,279.6 130.4,276.8 131.6,275.2 132.1,272.9 
				131.7,271.9 129.7,270.4 129.1,269.5 129.1,268.8 133.5,255.8 133.8,253.7 132.9,252.3 131.8,251 131.1,249.1 131.3,247.7 
				139.7,229 140,227.7 139.8,226.4 138.4,223.6 137.9,222.2 138,219.5 137.5,216.9 137.6,215.5 138.1,213.9 138.8,212.2 
				139.7,210.7 140.7,209.3 143.3,207.7 149.2,205.4 151.2,203.1 151.3,202.4 151.4,201.2 153.1,202.7 155.7,208.8 157.5,210.8 
				159.2,212.2 160.8,213 162.2,213 165.9,211.8 167.9,211.5 169.7,211.7 171.1,211.5 172.5,210.3 174.1,208.6 182.5,202 
				183.6,200.5 185.4,196.1 185.8,195.7 188.6,196 190.6,196 191.3,196.1 192.1,197.4 193.8,197.6 195.7,197.6 196.8,197.9 
				197.1,198.2 198.7,199.2 199.3,200 200.1,201.8 201,202.7 203.8,205.1 204.1,205.5 206.4,209.3 208,211.3 208.7,212.9 
				209.2,216.3 210.2,219.4 211.5,220 212.9,219.9 214.1,219.1 216.9,216.1 219.5,213.8 222.1,211.9 223.7,211.4 224.1,212.1 
				223.8,216.6 224.1,222.7 224.9,224 227.1,226.3 231,232.2 231.1,232.8 230.3,233.9 229,235.2 228.4,236.6 230,238 231.1,238.7 
				235.2,242.8 235,245.5 234,247.5 232.8,249.2 232.1,250.7 232.3,251.9 232.6,253.3 232.8,254.7 232.2,255.9 232,256.8 234,261.1 
				232.3,264 230.5,266 227,268.7 226,269.8 224.9,271.2 224,272.6 223.8,273.6 223.8,274.6 222.2,278.4 222,280.4 222,282.3 
				222.2,283.5 222.4,283.5 223,282.1 223.9,281.2 225.2,280.7 226.7,280.7 227.6,281.9 223.2,291.8 223.7,295.6 224.7,298.5 
				226.1,300.6 227.5,302.3 229.1,303.4 230.7,303.5 234,301.9 234.7,301.8 235.5,302.1 236.2,303.1 236.2,304.2 236,305.4 
				236.1,306.6 237,307.9 238.3,308.4 239,308.4 241.4,308.4 249,309.1 249.6,309 251.2,308.6 251.8,308.6 253,309.8 254.3,310.3 
				257.4,310.5 258.8,310.8 261.5,311.8 			"/>
			<polygon fill="none" stroke="#EEF2E0" stroke-width="2" stroke-linecap="round" stroke-linejoin="round" points="389.3,396.099 
				389.8,396.4 391.5,396.3 392.9,396.4 394.6,400.2 395,401.4 395,402.7 394.8,403.599 394.3,405.099 394.5,405.9 393.1,405.8 
				391.7,405.4 391.9,406.599 392.9,409.099 392.8,410.099 392,410.599 391,410.5 390.1,410.599 389.7,411.9 388.9,413 387.6,412.8 
				386.3,412.099 385.5,411.5 384.2,409.9 383.6,409.2 382.9,408.599 381.4,408.099 380.8,407.5 380.3,406.9 379.7,404.9 
				378.7,403.3 378.8,402.8 378.2,401.9 378.7,400.5 379.6,398.7 380.8,397.099 381.9,396.2 382.7,395.9 385.4,395.3 386.2,395.2 
				386.5,395.5 387,396.4 387.7,396.5 389.1,395.099 			"/>
			<polyline fill="none" stroke="#EEF2E0" stroke-width="2" stroke-linecap="round" stroke-linejoin="round" points="583.401,369.7 
				581.7,370.1 580,369.9 578.6,369.3 577.6,367.9 576.8,367 575.3,366.7 573.6,366.9 572,367.3 570.7,368 568.401,370 567.2,370.6 
				565.7,370.5 560.6,368.7 555.1,367.6 552.3,367.5 549.7,368.2 549,368.6 547.2,370.5 545.8,371.7 544.3,372.6 542.8,373.3 
				539.6,374.5 538.2,375.2 536.901,376.1 535.7,377.1 535.1,377.5 533.6,377.6 532.901,377.8 532.2,378.1 530.1,379.5 527.2,380.5 
				525.5,380.9 524.1,381 522.6,380.5 521.6,379.5 521,378.1 520.6,376.4 520.901,375 522.1,374.9 525,375.5 526.7,375.4 
				528.401,375 529.3,374.1 528.6,372.7 525.5,370.8 522.401,370.8 519.1,371.5 515.401,371.5 514.6,371.4 514,371.7 514.6,367 
				515.8,362.1 516.8,359.6 522.7,350.4 526.401,346.2 534.8,338.9 535.8,337.4 535.2,336.5 532.2,335.3 531.1,334.3 530.6,332.6 
				530.5,330.9 540.1,294.1 540.1,292.2 539.7,289.4 539.901,288.1 540.5,286.7 542.8,283.9 547.901,278.8 549.8,275.7 550.2,274 
				550.5,272.1 551,270.4 552.3,269 553.8,268.6 580.3,268.8 582.3,268.6 583.5,268.1 584.6,267.4 585.401,267 585.8,267.7 
				587.5,268.3 595.401,269.9 595.8,270.7 596.2,271 596.7,271.1 597.401,270.5 597.901,270.3 601.6,270.2 603.5,269.7 605.5,267.6 
				607.3,267 611,266.6 614.401,267.4 615.7,267.4 616.6,267.2 618.901,266.1 621.3,266 623.401,265.3 625,265.5 626,265.9 
				627,265.9 628.401,265.2 632.8,262.3 638.8,260.5 641.901,260.2 646.6,261.4 648.2,261.4 649.5,261.9 651.2,265.6 652.3,266.6 
				653.8,266.9 656.5,267.2 658.2,267.7 659,267.8 660,267.4 660.7,266.6 661.401,266 662.401,266.4 661.6,267.9 660.901,270.6 
				660.401,271.8 659.3,272.7 656.5,273.9 655.5,275 654.901,276.3 654.7,277.5 654.3,278.5 653.2,279.6 650.8,281.5 650,282.6 
				649.401,284.3 648.8,287 648.3,288.4 647.5,289.5 646.2,290.2 644.901,290.6 644,291.3 644.1,292.7 645.401,295.8 647.2,298.6 
				650.901,302.2 651.901,303.5 652.6,305.4 653.5,311.5 654.7,315.9 656.6,320 658.3,322.1 664.7,326.3 666.3,327.9 667.5,329.9 
				668.3,332.1 668.901,334.4 670.1,337.5 672,339.4 674.401,340.3 677.5,340.9 679.901,342 681.2,344.2 683.1,355 684.1,357.6 
				685.5,359.2 687.3,359.7 687.901,360 688.5,360.6 689.1,362.1 689.6,362.8 690.2,363.4 691.6,364.3 692.2,364.9 693.7,368 
				694.1,369.2 694.2,371.5 694.5,372.7 695.401,373.8 704,379 705.2,379.1 706.8,378.5 707.901,378.4 708.901,378.9 714,383.6 
				719.901,389.1 733.1,401.099 735.7,402.7 776.2,416.099 811.401,427.8 834.901,435.599 851.7,441.3 874,448.9 890.8,454.599 
				918.7,464 928.5,467.3 932.401,469.3 938.3,469.3 989.5,469.3 999,469.3 989.3,478.8 976.3,491.4 969.901,497.7 953.7,513.4 
				947.2,519.7 934.3,532.3 931,535.5 918.1,548 908.401,557.5 895.5,570.099 887.3,578.4 875.1,591 863,603.599 841.5,627.099 
				820.1,650.7 805.8,666.4 802,670.5 796.8,676.2 794.8,677 780.901,676.2 763.6,675.2 732,673.4 729.6,674 723.8,676 702.7,680.9 
				675.401,693.9 664.8,702.599 663.901,704 663,706.2 661.8,710.9 660.8,713 658.8,715.3 656.3,717 653.5,718.099 628.5,722.3 
				620.7,723.7 609.901,723.8 607.8,724.3 605.5,725.5 601.7,728.5 597,731.4 595.8,732.4 595.401,733.7 595.401,735.8 
				595.1,736.599 594.1,737.4 593.2,738.7 590,740.5 587,739.9 584.1,738.4 580.901,737.4 578.1,739 577.1,739.2 576.2,739 
				574.401,738.3 573.401,738.2 568,739.5 566.3,739.599 562.901,740.599 548.7,741.4 545.2,741 541.901,739.7 539,737.4 
				534.7,731.4 533,729.8 531.901,729.099 528.7,728 527.5,727.4 526.8,726.7 525.7,724.7 524.1,722.8 520.1,720.099 518.6,718.099 
				514.401,720.9 493.2,729 492.8,729.4 492.5,730.5 492.1,730.8 480.1,735 478.9,734.8 478.9,735.5 478.6,735.9 475.5,737.4 
				457.7,746 456.3,747.7 453.1,756.099 452,758.099 450.8,759.8 441.2,768.599 439.4,770.7 438,775.099 436.9,776.9 434.7,777 
				433.7,776.3 433.2,775.4 432.8,774.5 432.3,773.7 430.2,773.099 421.9,772.8 422.5,771.599 422.2,770.9 421.3,770.8 
				418.3,772.599 415.8,772.599 413.2,772.099 407.2,769.3 408,768.599 407.5,768.099 412.9,765.2 418.6,762.7 421.2,761 
				423.3,758.3 432.4,742.7 434.4,738.5 433.5,735.7 433.4,734.4 433.7,733 435.8,727.4 437.2,721.5 437.7,720.599 440.1,717.5 
				450.6,693.2 451,691.5 451.2,687.5 452.5,680.2 454.4,674.8 455.8,669.3 458.3,664.4 462.4,653.8 468.7,644.7 470.1,643.599 
				471.1,643.599 473,644.599 475.4,645.599 480.2,646.599 481.6,646.4 485,645.2 485.6,645.099 487.3,645.2 489.4,644.8 
				492.1,644.5 497.1,643.4 500.2,643.4 501.2,642.8 503,642.5 504.1,642 514.6,632.5 524.3,627.099 529.2,623.5 526.8,617.8 
				526.3,616 526.2,614 526.3,608.7 525.401,596 525.901,592.5 526.3,590.8 526.5,589.099 526.6,587.4 526.5,585.7 526.2,584.3 
				525.6,582.7 525.2,581.2 525.401,578.4 524.901,575.2 525.401,573.7 528,569 529,567.599 532.901,563.8 536.2,559.3 537.6,558 
				539.2,557.099 542.401,556.9 545.6,558.4 548.8,560.599 557.1,565 560.401,565.5 562,566 563.5,566.8 564.901,567.9 575.7,579 
				576.5,577.4 577.5,576.5 580,574.8 581.1,573.5 583.3,569.099 585.2,567.099 588,565.4 590.6,565.099 591.7,567.3 593.3,567.3 
				594.8,566.9 596.3,566.3 597.8,565.5 598.2,565.2 600,563.4 600.401,562.7 601,561.5 601.8,560.2 602.5,559 603.7,554.3 
				605.5,551.5 606.2,550 605.5,548.7 606.1,547.9 606.2,547.2 605.901,545.7 606.1,545 606.8,543.4 607.1,541.7 607.8,540.7 
				610,539.5 609.901,538.7 610.2,538.2 611,537.5 611.8,535.4 612.7,534 613.1,533.3 613.2,532.4 613.1,530.9 613.2,530.2 
				613.5,529.599 614.8,527.599 615.7,524.5 616,521.3 615.2,517.099 614.7,516.599 594.3,508.599 593.7,507.5 593.2,505.5 
				592.6,502 592.5,500.5 592.7,499.2 593.6,496.4 596.7,489.599 597.8,485.8 597.401,482.8 596.3,480.9 595.6,479.3 
				595.401,477.599 596.3,461.3 597,457.5 598.3,454.3 602,449 602.901,447.2 603,445.4 602.6,441.5 603.1,439.9 605.6,436.599 
				608.401,433.7 614.7,428.3 619.2,427.099 621.8,431.9 622.7,432.8 630.6,434.3 634.401,435.9 636.401,438.7 638.401,450 
				639.5,453.5 641.1,456.7 643.2,459.099 645.401,459.599 647.8,456.8 650.401,447 652.2,444.5 653.6,443.7 659.5,442.2 
				660.6,441.3 661,439.7 661.1,437.9 661.7,434.7 661.8,432.8 661.6,431 661.2,429.3 660.5,428 657.1,424.5 656.401,421.4 
				658.5,415.2 658,412.4 656.7,411.3 653.8,409.099 652.5,407.9 647.901,402.8 643.8,396.3 642.6,393.599 642.401,392.4 
				642.6,390.599 642.3,390.099 641.1,388.8 640.3,387.5 638.1,381.1 637.901,380.1 637.8,378.5 637.6,377.9 633.401,369.3 
				631.2,366.2 628.8,363.8 626.7,363.3 627.1,356.7 626.3,353.8 623.6,353 			"/>
			<polygon fill="none" stroke="#EEF2E0" stroke-width="2" stroke-linecap="round" stroke-linejoin="round" points="623.6,353 
				622.3,353.7 619.901,355.8 618.8,356.8 617.7,357.4 614.3,357.6 612.7,358.2 610.7,359.3 609.8,360 609.5,360.6 609.7,361.4 
				611,363.5 610.7,365.1 609.1,366.6 607.2,368.1 606,369.6 602,367.6 600.2,367.6 596.5,369.3 594.901,369.5 594.1,369.3 
				592.2,368.7 591.401,368.8 589.3,369.2 587.401,368.9 585.5,368.7 583.401,369.7 583,366.7 583.6,362.2 585.1,358.4 587.5,357.9 
				588.8,358 592,355.9 593.7,355.5 595.5,356 600.6,358.8 602.401,359.4 603.6,359.2 611.3,351.4 614.401,349.4 617.8,349 
				621.1,350.2 			"/>
			<polygon fill="none" stroke="#EEF2E0" stroke-width="2" stroke-linecap="round" stroke-linejoin="round" points="618,375.7 
				619,377.2 619,377.8 618.6,381 617.8,382.4 617.7,383.3 618.1,384.5 618.8,385.8 619.2,387 618.6,388.3 617.5,388.9 
				616.401,388.6 614.6,387 613.7,386.7 611.901,387.5 610.901,387.6 610.401,387.3 609.401,386.4 608.8,386 607.5,386.1 
				606.2,386.4 605.1,386.2 605,384.7 605.3,382.7 606,380.8 608,377.4 609.5,375.8 610.6,375.9 611.8,376.6 613.5,377.1 615,376.6 
				616.6,375.8 			"/>
		</g>
	</g>
</g>
<g id="Layer_2">
	<g id="XMLID_2_" opacity="0.9">
		<g>
			<polygon fill="#868864" points="223.41,279.1 222.51,280 221.91,281.4 221.71,281.4 221.51,280.2 221.51,278.3 221.71,276.3 
				223.31,272.5 223.31,271.5 223.51,270.5 224.41,269.1 225.51,267.7 226.51,266.6 230.01,263.9 231.81,261.9 233.51,259 
				231.51,254.7 231.71,253.8 232.31,252.6 232.11,251.2 231.81,249.8 231.61,248.6 232.31,247.1 233.51,245.4 234.51,243.4 
				234.71,240.7 230.61,236.6 229.51,235.9 227.91,234.5 228.51,233.1 229.81,231.8 230.61,230.7 230.51,230.1 226.61,224.2 
				224.41,221.9 223.61,220.6 223.31,214.5 223.61,210 223.21,209.3 221.61,209.8 219.01,211.7 216.41,214 213.61,217 212.41,217.8 
				211.01,217.9 209.71,217.3 208.71,214.2 208.21,210.8 207.51,209.2 205.91,207.2 203.61,203.4 203.31,203 200.51,200.6 
				199.61,199.7 198.81,197.9 198.21,197.1 196.61,196.1 196.31,195.8 195.21,195.5 193.31,195.5 191.61,195.3 190.81,194 
				190.11,193.9 188.11,193.9 185.31,193.6 184.91,194 183.11,198.4 182.01,199.9 173.61,206.5 172.01,208.2 170.61,209.4 
				169.21,209.6 167.41,209.4 165.41,209.7 161.71,210.9 160.31,210.9 158.71,210.1 157.01,208.7 155.21,206.7 152.61,200.6 
				150.91,199.1 151.11,198.2 151.71,197.6 154.21,196.1 155.51,194.6 156.01,193 156.71,189.3 157.91,186.3 158.41,185.5 
				159.01,184.9 160.51,184.2 161.21,183.6 161.81,182.7 162.01,181.8 162.21,179.9 162.91,178 175.41,157 176.01,156.3 
				176.61,156.1 177.91,156 178.41,155.7 179.11,155 179.91,151.8 180.11,151.3 181.11,150.8 182.81,150.2 202.91,147.3 
				204.31,147.4 205.71,148.3 207.51,148.8 208.61,148.3 209.21,147 210.51,139.4 210.41,137.7 210.21,136.7 208.61,134 
				208.51,132.5 209.31,131.3 210.31,130.3 210.91,129.3 210.91,128.7 210.11,127.1 210.01,125.7 216.51,103.2 226.41,88.9 
				227.01,86.9 227.21,83 227.41,81.7 230.21,74.8 231.11,75.5 235.91,85.9 236.81,86.9 237.91,86.9 246.61,89.2 247.91,89.8 
				255.31,96.7 259.01,98.9 260.61,100.8 261.81,101.3 269.61,102.4 271.01,102.4 271.91,101.8 272.71,101 276.31,99.1 278.21,98.6 
				280.41,98.4 282.01,98.8 284.01,99.6 285.81,100.8 286.81,102.1 287.41,102.6 288.41,102.8 299.91,103.2 301.81,102.8 
				311.11,98.4 312.11,97.6 313.11,96.5 313.71,95.2 315.31,90.4 316.91,89.2 319.51,89.2 326.91,91 335.71,95.5 338.01,95.9 
				338.81,95.6 340.21,94.9 341.51,94 342.11,93.2 343.21,92 345.61,92.2 348.91,92.7 352.81,92.9 359.41,92 360.71,91.3 
				361.81,90.2 362.41,89.1 363.11,88.1 364.21,87.6 365.01,87.8 365.61,88.5 366.11,89.7 366.41,91.2 364.41,95.9 364.81,96.2 
				370.41,94.8 371.91,94.1 373.01,93.9 374.31,93.8 379.01,94.3 379.21,94.8 380.11,96.8 380.61,99.8 381.01,101 383.81,102.3 
				398.61,117.1 400.41,119.3 400.71,121.4 400.71,122.7 400.81,124.4 401.11,125.9 401.61,126.9 402.51,127.5 403.71,127.7 
				407.11,127.7 414.31,126.4 415.61,126.9 416.21,128.2 416.41,130.3 416.91,132.5 417.71,135 418.31,138 418.21,141.8 
				413.31,150.8 413.01,153.1 413.51,155.5 416.21,162.4 416.91,169.9 417.21,171.4 417.91,173.2 418.81,174.9 420.01,175.9 
				420.61,176 425.51,175.8 425.81,174.1 427.81,173.6 436.21,173.9 436.81,174.9 437.01,176.4 436.91,177.8 436.51,178.9 
				436.61,179.1 442.61,175.5 443.31,175.3 448.11,175 450.41,174.7 452.61,174.1 451.51,177.3 451.41,178 451.41,179.7 
				451.91,181.7 453.61,185.2 454.11,187 454.11,188 454.01,188.9 454.01,189.7 455.31,191.5 455.71,192.4 455.91,193.5 
				456.11,194.5 456.01,196.5 456.11,197.4 456.51,198.4 456.91,199.3 457.81,200.4 459.41,201.4 459.51,201.7 459.01,208.3 
				459.01,210.2 459.51,211.5 461.81,215.8 463.01,217.2 464.41,218.4 465.91,219.1 466.41,219.8 466.81,221.3 467.31,224.8 
				467.91,226.3 470.71,231 471.31,232.6 471.91,236.3 471.91,238.3 471.71,240.3 473.81,242.5 475.01,243.7 476.01,245 
				478.71,249.9 479.41,251.7 479.81,253.5 480.01,256.7 480.31,259.1 480.31,260.3 480.01,261.5 479.61,262.5 475.81,268.2 
				477.51,270.1 478.21,271.9 478.11,273.7 477.41,275.5 475.41,278.9 474.91,280.4 474.91,281.9 475.71,283.7 477.81,286.3 
				478.21,287.1 478.21,288.6 477.51,291.9 477.51,293.6 479.01,298.5 479.11,299.4 478.81,300.7 478.01,302.1 477.71,303.5 
				477.01,312 476.81,313.3 475.51,316.4 475.31,318.3 475.51,320 475.91,321.8 476.11,323.6 476.01,325 475.51,325.4 474.51,325.3 
				473.01,324.9 471.61,324.7 470.01,324.6 468.41,325 467.31,325.9 466.61,327.6 466.71,329 467.51,330.2 469.01,331.3 
				471.01,332.5 472.41,333.5 473.01,334.9 472.91,337.5 472.41,338.9 470.51,341.6 469.91,342.9 468.11,345.3 468.11,346.2 
				468.91,347.7 469.21,348.5 468.31,350.4 465.71,350.4 460.11,348.8 457.41,349.5 457.61,352.2 460.11,358.6 460.21,362.1 
				459.81,365.5 458.51,368.6 456.11,371 454.71,372 453.81,373.1 453.61,374.1 454.51,375.2 455.21,375.5 457.01,376 457.91,376.4 
				460.31,378.3 460.21,381.5 458.41,384.6 456.21,387.6 454.61,390.2 451.71,392.599 451.91,406.3 451.21,408.3 449.11,409.599 
				442.31,412 440.01,413.4 436.81,415.7 435.41,416 433.71,415.099 431.31,411.4 429.31,410.7 428.31,411.099 424.91,414.5 
				423.41,414.599 422.21,414.3 421.41,413.7 420.91,413 419.21,409.3 419.11,408.2 419.31,406.9 419.11,403 424.81,393.7 
				425.61,391.5 425.41,389.5 424.01,388.4 420.51,387.7 419.11,386.6 418.21,384.4 417.61,381.9 417.41,380 417.81,379.4 
				418.91,379.3 420.51,379.4 426.21,379 427.11,378.6 430.41,376.2 432.11,375.9 434.41,376.7 434.51,376.7 430.61,372.6 
				430.21,372 430.41,370.4 429.01,369.6 427.01,369.2 425.51,369.3 423.11,368.8 420.91,366 418.51,361.7 415.31,357 407.61,353.6 
				395.51,351.1 391.21,349 389.01,346.3 387.91,343.2 387.41,339.9 387.31,336.5 387.11,336.1 385.91,334.3 385.11,333.6 
				383.91,332.7 379.71,331.1 378.41,329.9 378.31,327.9 380.91,328.4 383.51,327.8 387.91,325.5 388.71,324.5 391.61,310.9 
				391.71,308.4 390.51,307.5 382.81,306.1 367.21,306.9 366.61,307.4 366.21,308.1 364.51,315.4 364.01,316.1 363.51,316.6 
				362.81,316.9 362.51,317.3 362.51,318.2 363.01,319.6 363.11,320.3 362.91,321.1 362.01,322.4 360.51,323.1 358.81,323.4 
				357.21,323.4 355.51,322.9 354.21,323.1 352.41,323.7 350.51,324.1 349.71,324.8 349.11,326.2 347.41,327.9 346.31,328.6 
				342.31,329.6 332.81,334.1 329.71,336.3 329.11,336.5 327.31,336.7 326.81,337 325.81,338.3 325.21,338.9 320.51,341.5 
				319.91,341.7 318.21,341.4 317.21,341.6 315.41,342.6 314.31,342.6 308.11,338 307.11,336.8 306.71,336 305.21,334.2 
				303.81,332.3 302.91,331.6 296.51,328.7 294.31,328.1 292.01,327.8 291.01,328.1 290.41,330 289.71,330.8 289.01,330.9 
				288.51,330.5 287.71,329.4 287.41,328.6 287.41,327.1 287.31,326.3 286.81,325.6 285.71,325.1 284.61,324.8 283.71,324.8 
				282.51,325 281.51,324.6 279.91,322.9 279.01,320.6 279.81,318.6 280.81,316.6 280.61,314.8 279.61,314.3 275.11,314.3 
				273.81,313.8 272.51,313.1 270.61,311.5 261.01,309.7 258.31,308.7 256.91,308.4 253.81,308.2 252.51,307.7 251.31,306.5 
				250.71,306.5 249.11,306.9 248.51,307 240.91,306.3 237.81,306.3 236.51,305.8 235.61,304.5 235.51,303.3 235.71,302.1 
				235.71,301 235.01,300 234.21,299.7 233.51,299.8 230.21,301.4 228.61,301.3 227.01,300.2 225.61,298.5 224.21,296.4 
				223.21,293.5 222.71,289.7 227.11,279.8 226.21,278.6 224.71,278.6 			"/>
		</g>
		<g>
			<polygon fill="none" stroke="#FFFFFF" stroke-width="2" stroke-linecap="round" stroke-linejoin="round" points="452.61,174.1 
				451.51,177.3 451.41,178 451.41,179.7 451.91,181.7 453.61,185.2 454.11,187 454.11,188 454.01,188.9 454.01,189.7 455.31,191.5 
				455.71,192.4 455.91,193.5 456.11,194.5 456.01,196.5 456.11,197.4 456.51,198.4 456.91,199.3 457.81,200.4 459.41,201.4 
				459.51,201.7 459.01,208.3 459.01,210.2 459.51,211.5 461.81,215.8 463.01,217.2 464.41,218.4 465.91,219.1 466.41,219.8 
				466.81,221.3 467.31,224.8 467.91,226.3 470.71,231 471.31,232.6 471.91,236.3 471.91,238.3 471.71,240.3 473.81,242.5 
				475.01,243.7 476.01,245 478.71,249.9 479.41,251.7 479.81,253.5 480.01,256.7 480.31,259.1 480.31,260.3 480.01,261.5 
				479.61,262.5 475.81,268.2 477.51,270.1 478.21,271.9 478.11,273.7 477.41,275.5 475.41,278.9 474.91,280.4 474.91,281.9 
				475.71,283.7 477.81,286.3 478.21,287.1 478.21,288.6 477.51,291.9 477.51,293.6 479.01,298.5 479.11,299.4 478.81,300.7 
				478.01,302.1 477.71,303.5 477.01,312 476.81,313.3 475.51,316.4 475.31,318.3 475.51,320 475.91,321.8 476.11,323.6 476.01,325 
				475.51,325.4 474.51,325.3 473.01,324.9 471.61,324.7 470.01,324.6 468.41,325 467.31,325.9 466.61,327.6 466.71,329 
				467.51,330.2 469.01,331.3 471.01,332.5 472.41,333.5 473.01,334.9 472.91,337.5 472.41,338.9 470.51,341.6 469.91,342.9 
				468.11,345.3 468.11,346.2 468.91,347.7 469.21,348.5 468.31,350.4 465.71,350.4 460.11,348.8 457.41,349.5 457.61,352.2 
				460.11,358.6 460.21,362.1 459.81,365.5 458.51,368.6 456.11,371 454.71,372 453.81,373.1 453.61,374.1 454.51,375.2 
				455.21,375.5 457.01,376 457.91,376.4 460.31,378.3 460.21,381.5 458.41,384.6 456.21,387.6 454.61,390.2 451.71,392.599 
				451.91,406.3 451.21,408.3 449.11,409.599 442.31,412 440.01,413.4 436.81,415.7 435.41,416 433.71,415.099 431.31,411.4 
				429.31,410.7 428.31,411.099 424.91,414.5 423.41,414.599 422.21,414.3 421.41,413.7 420.91,413 419.21,409.3 419.11,408.2 
				419.31,406.9 419.11,403 424.81,393.7 425.61,391.5 425.41,389.5 424.01,388.4 420.51,387.7 419.11,386.6 418.21,384.4 
				417.61,381.9 417.41,380 417.81,379.4 418.91,379.3 420.51,379.4 426.21,379 427.11,378.6 430.41,376.2 432.11,375.9 
				434.41,376.7 434.51,376.7 430.61,372.6 430.21,372 430.41,370.4 429.01,369.6 427.01,369.2 425.51,369.3 423.11,368.8 
				420.91,366 418.51,361.7 415.31,357 407.61,353.6 395.51,351.1 391.21,349 389.01,346.3 387.91,343.2 387.41,339.9 387.31,336.5 
				387.11,336.1 385.91,334.3 385.11,333.6 383.91,332.7 379.71,331.1 378.41,329.9 378.31,327.9 380.91,328.4 383.51,327.8 
				387.91,325.5 388.71,324.5 391.61,310.9 391.71,308.4 390.51,307.5 382.81,306.1 367.21,306.9 366.61,307.4 366.21,308.1 
				364.51,315.4 364.01,316.1 363.51,316.6 362.81,316.9 362.51,317.3 362.51,318.2 363.01,319.6 363.11,320.3 362.91,321.1 
				362.01,322.4 360.51,323.1 358.81,323.4 357.21,323.4 355.51,322.9 354.21,323.1 352.41,323.7 350.51,324.1 349.71,324.8 
				349.11,326.2 347.41,327.9 346.31,328.6 342.31,329.6 332.81,334.1 329.71,336.3 329.11,336.5 327.31,336.7 326.81,337 
				325.81,338.3 325.21,338.9 320.51,341.5 319.91,341.7 318.21,341.4 317.21,341.6 315.41,342.6 314.31,342.6 308.11,338 
				307.11,336.8 306.71,336 305.21,334.2 303.81,332.3 302.91,331.6 296.51,328.7 294.31,328.1 292.01,327.8 291.01,328.1 
				290.41,330 289.71,330.8 289.01,330.9 288.51,330.5 287.71,329.4 287.41,328.6 287.41,327.1 287.31,326.3 286.81,325.6 
				285.71,325.1 284.61,324.8 283.71,324.8 282.51,325 281.51,324.6 279.91,322.9 279.01,320.6 279.81,318.6 280.81,316.6 
				280.61,314.8 279.61,314.3 275.11,314.3 273.81,313.8 272.51,313.1 270.61,311.5 261.01,309.7 258.31,308.7 256.91,308.4 
				253.81,308.2 252.51,307.7 251.31,306.5 250.71,306.5 249.11,306.9 248.51,307 240.91,306.3 237.81,306.3 236.51,305.8 
				235.61,304.5 235.51,303.3 235.71,302.1 235.71,301 235.01,300 234.21,299.7 233.51,299.8 230.21,301.4 228.61,301.3 
				227.01,300.2 225.61,298.5 224.21,296.4 223.21,293.5 222.71,289.7 227.11,279.8 226.21,278.6 224.71,278.6 223.41,279.1 
				222.51,280 221.91,281.4 221.71,281.4 221.51,280.2 221.51,278.3 221.71,276.3 223.31,272.5 223.31,271.5 223.51,270.5 
				224.41,269.1 225.51,267.7 226.51,266.6 230.01,263.9 231.81,261.9 233.51,259 231.51,254.7 231.71,253.8 232.31,252.6 
				232.11,251.2 231.81,249.8 231.61,248.6 232.31,247.1 233.51,245.4 234.51,243.4 234.71,240.7 230.61,236.6 229.51,235.9 
				227.91,234.5 228.51,233.1 229.81,231.8 230.61,230.7 230.51,230.1 226.61,224.2 224.41,221.9 223.61,220.6 223.31,214.5 
				223.61,210 223.21,209.3 221.61,209.8 219.01,211.7 216.41,214 213.61,217 212.41,217.8 211.01,217.9 209.71,217.3 208.71,214.2 
				208.21,210.8 207.51,209.2 205.91,207.2 203.61,203.4 203.31,203 200.51,200.6 199.61,199.7 198.81,197.9 198.21,197.1 
				196.61,196.1 196.31,195.8 195.21,195.5 193.31,195.5 191.61,195.3 190.81,194 190.11,193.9 188.11,193.9 185.31,193.6 
				184.91,194 183.11,198.4 182.01,199.9 173.61,206.5 172.01,208.2 170.61,209.4 169.21,209.6 167.41,209.4 165.41,209.7 
				161.71,210.9 160.31,210.9 158.71,210.1 157.01,208.7 155.21,206.7 152.61,200.6 150.91,199.1 151.11,198.2 151.71,197.6 
				154.21,196.1 155.51,194.6 156.01,193 156.71,189.3 157.91,186.3 158.41,185.5 159.01,184.9 160.51,184.2 161.21,183.6 
				161.81,182.7 162.01,181.8 162.21,179.9 162.91,178 175.41,157 176.01,156.3 176.61,156.1 177.91,156 178.41,155.7 179.11,155 
				179.91,151.8 180.11,151.3 181.11,150.8 182.81,150.2 202.91,147.3 204.31,147.4 205.71,148.3 207.51,148.8 208.61,148.3 
				209.21,147 210.51,139.4 210.41,137.7 210.21,136.7 208.61,134 208.51,132.5 209.31,131.3 210.31,130.3 210.91,129.3 
				210.91,128.7 210.11,127.1 210.01,125.7 216.51,103.2 226.41,88.9 227.01,86.9 227.21,83 227.41,81.7 230.21,74.8 231.11,75.5 
				235.91,85.9 236.81,86.9 237.91,86.9 246.61,89.2 247.91,89.8 255.31,96.7 259.01,98.9 260.61,100.8 261.81,101.3 269.61,102.4 
				271.01,102.4 271.91,101.8 272.71,101 276.31,99.1 278.21,98.6 280.41,98.4 282.01,98.8 284.01,99.6 285.81,100.8 286.81,102.1 
				287.41,102.6 288.41,102.8 299.91,103.2 301.81,102.8 311.11,98.4 312.11,97.6 313.11,96.5 313.71,95.2 315.31,90.4 316.91,89.2 
				319.51,89.2 326.91,91 335.71,95.5 338.01,95.9 338.81,95.6 340.21,94.9 341.51,94 342.11,93.2 343.21,92 345.61,92.2 
				348.91,92.7 352.81,92.9 359.41,92 360.71,91.3 361.81,90.2 362.41,89.1 363.11,88.1 364.21,87.6 365.01,87.8 365.61,88.5 
				366.11,89.7 366.41,91.2 364.41,95.9 364.81,96.2 370.41,94.8 371.91,94.1 373.01,93.9 374.31,93.8 379.01,94.3 379.21,94.8 
				380.11,96.8 380.61,99.8 381.01,101 383.81,102.3 398.61,117.1 400.41,119.3 400.71,121.4 400.71,122.7 400.81,124.4 
				401.11,125.9 401.61,126.9 402.51,127.5 403.71,127.7 407.11,127.7 414.31,126.4 415.61,126.9 416.21,128.2 416.41,130.3 
				416.91,132.5 417.71,135 418.31,138 418.21,141.8 413.31,150.8 413.01,153.1 413.51,155.5 416.21,162.4 416.91,169.9 
				417.21,171.4 417.91,173.2 418.81,174.9 420.01,175.9 420.61,176 425.51,175.8 425.81,174.1 427.81,173.6 436.21,173.9 
				436.81,174.9 437.01,176.4 436.91,177.8 436.51,178.9 436.61,179.1 442.61,175.5 443.31,175.3 448.11,175 450.41,174.7 			"/>
		</g>
	</g>
</g>
</svg>
