<?xml version="1.0" encoding="UTF-8"?>
<svg width="596px" height="627px" viewBox="0 0 596 627" version="1.1" xmlns="http://www.w3.org/2000/svg" xmlns:xlink="http://www.w3.org/1999/xlink">
    <!-- Generator: Sketch 56.3 (81716) - https://sketch.com -->
    <title>view</title>
    <desc>Created with Sketch.</desc>
    <defs>
        <polygon id="path-1" points="0 0 595.199219 0 595.199219 1 0 1"></polygon>
        <polygon id="path-3" points="0 0 595.199219 0 595.199219 1 0 1"></polygon>
        <polygon id="path-5" points="0.078125 0.089844 15 0.089844 15 70.890625 0.078125 70.890625"></polygon>
        <polygon id="path-7" points="0.078125 0 57 0 57 29 0.078125 29"></polygon>
        <polygon id="path-9" points="0 0 15 0 15 28.890625 0 28.890625"></polygon>
        <polygon id="path-11" points="0 0 57.519531 0 57.519531 28.890625 0 28.890625"></polygon>
        <polygon id="path-13" points="0 0 57.519531 0 57.519531 29 0 29"></polygon>
    </defs>
    <g id="page" stroke="none" stroke-width="1" fill="none" fill-rule="evenodd">
        <g id="view" transform="translate(0.000000, 0.347656)">
            <g id="dividerLine1" transform="translate(0.000000, 424.652344)">
                <mask id="mask-2" fill="white">
                    <use xlink:href="#path-1"></use>
                </mask>
                <g id="Path"></g>
                <path d="M-7737.48047,0.53125008 L4166.51953,0.53125008" id="Path" stroke-opacity="0.5" stroke="#3B3F46" stroke-width="0.5" stroke-linecap="round" stroke-linejoin="round" mask="url(#mask-2)"></path>
            </g>
            <g id="dividerLine2" transform="translate(0.000000, 509.652344)">
                <mask id="mask-4" fill="white">
                    <use xlink:href="#path-3"></use>
                </mask>
                <g id="Path"></g>
                <path d="M-7737.48047,0.73046864 L4166.51953,0.73046864" id="Path" stroke-opacity="0.5" stroke="#3B3F46" stroke-width="0.5" stroke-linecap="round" stroke-linejoin="round" mask="url(#mask-4)"></path>
            </g>
            <g id="star1" transform="translate(142.394531, 428.652344)" fill="#C2AA6A" fill-opacity="0.5" fill-rule="nonzero">
                <path d="M35.800781,1.921875 L78.761719,26.722656 C79.84375,27.347656 80.839844,28.113281 81.726563,29 C82.609375,29.882812 83.375,30.882812 84.003907,31.964844 L84,31.964844 L84.003907,31.964844 C84.628907,33.046875 85.109375,34.210938 85.433594,35.417969 C85.757813,36.628906 85.921875,37.875 85.921875,39.125 C85.921875,40.375 85.757813,41.621094 85.433594,42.832031 C85.109375,44.039062 84.628907,45.203125 84.003907,46.285156 L84,46.285156 C83.375,47.367188 82.609375,48.367188 81.726563,49.25 C80.839844,50.136719 79.84375,50.902344 78.761719,51.527344 L35.800781,76.328125 C34.714844,76.957031 33.554688,77.4375 32.347657,77.761719 C31.136719,78.085938 29.890625,78.25 28.640625,78.25 C27.386719,78.25 26.140625,78.085938 24.933594,77.761719 C23.726563,77.4375 22.5625,76.957031 21.480469,76.328125 C20.394531,75.703125 19.398438,74.9375 18.515625,74.054688 C17.628907,73.167969 16.863281,72.171875 16.238281,71.089844 C15.613281,70.003906 15.132813,68.84375 14.808594,67.632812 C14.484375,66.425781 14.320313,65.179688 14.320313,63.929688 L14.320313,14.320312 C14.320313,13.070312 14.484375,11.824219 14.808594,10.617188 C15.132813,9.40625 15.613281,8.246094 16.238281,7.160156 C16.863281,6.078125 17.628907,5.082031 18.515625,4.195312 C19.398438,3.3125 20.394531,2.546875 21.480469,1.921875 C22.5625,1.292969 23.726563,0.8125 24.933594,0.488281 C26.140625,0.164062 27.386719,0 28.640625,0 C29.890625,0 31.136719,0.164062 32.347657,0.488281 C33.554688,0.8125 34.714844,1.292969 35.800781,1.921875 Z" id="Path"></path>
                <path d="M50.121094,1.921875 L7.160157,26.722656 C6.074219,27.347656 5.078125,28.113281 4.195313,29 C3.308594,29.882812 2.542969,30.882812 1.917969,31.964844 C1.292969,33.046875 0.8125,34.210938 0.488281,35.417969 C0.164063,36.628906 0,37.875 0,39.125 C0,40.375 0.164063,41.621094 0.488281,42.832031 C0.8125,44.039062 1.292969,45.203125 1.917969,46.285156 C2.542969,47.367188 3.308594,48.367188 4.195313,49.25 C5.078125,50.136719 6.074219,50.902344 7.160157,51.527344 L50.121094,76.328125 C51.203125,76.957031 52.363281,77.4375 53.574219,77.761719 C54.78125,78.085938 56.027344,78.25 57.28125,78.25 C58.53125,78.25 59.777344,78.085938 60.988281,77.761719 C62.195313,77.4375 63.355469,76.957031 64.441407,76.328125 C65.523438,75.703125 66.519531,74.9375 67.40625,74.054688 C68.292969,73.167969 69.054688,72.171875 69.683594,71.089844 C70.308594,70.003906 70.789063,68.84375 71.113281,67.632812 C71.4375,66.425781 71.601563,65.179688 71.601563,63.929688 L71.601563,14.320312 C71.601563,13.070312 71.4375,11.824219 71.113281,10.617188 C70.789063,9.40625 70.308594,8.246094 69.683594,7.160156 C69.054688,6.078125 68.289063,5.082031 67.40625,4.195312 C66.519531,3.3125 65.523438,2.546875 64.441407,1.921875 C63.355469,1.292969 62.195313,0.8125 60.988281,0.488281 C59.777344,0.164062 58.53125,0 57.28125,0 C56.027344,0 54.78125,0.164062 53.574219,0.488281 C52.363281,0.8125 51.203125,1.292969 50.121094,1.921875 Z" id="Path"></path>
            </g>
            <g id="star2" transform="translate(255.781250, 428.652344)" fill="#C2AA6A" fill-opacity="0.5" fill-rule="nonzero">
                <path d="M35.800781,1.921875 L78.757812,26.722656 C79.84375,27.347656 80.839844,28.113281 81.726562,29 C82.609375,29.882812 83.375,30.882812 84,31.964844 C84.625,33.050781 85.109375,34.210938 85.429688,35.417969 L85.433594,35.417969 C85.753906,36.628906 85.917969,37.875 85.917969,39.125 C85.917969,40.375 85.753906,41.621094 85.433594,42.832031 L85.429688,42.832031 C85.109375,44.039062 84.625,45.203125 84,46.285156 C83.375,47.367188 82.609375,48.367188 81.726562,49.25 C80.839844,50.136719 79.84375,50.902344 78.757812,51.527344 L35.800781,76.328125 C34.714844,76.957031 33.554688,77.4375 32.34375,77.761719 C31.136719,78.085938 29.890625,78.25 28.640625,78.25 C27.386719,78.25 26.140625,78.085938 24.933594,77.761719 C23.722656,77.4375 22.5625,76.957031 21.480469,76.328125 C20.394531,75.703125 19.398438,74.9375 18.511719,74.054688 C17.628906,73.167969 16.863281,72.171875 16.238281,71.089844 C15.613281,70.003906 15.128906,68.84375 14.808594,67.632812 C14.484375,66.425781 14.320312,65.179688 14.320312,63.929688 L14.320312,14.320312 C14.320312,13.070312 14.484375,11.824219 14.808594,10.617188 C15.128906,9.40625 15.613281,8.246094 16.238281,7.160156 C16.863281,6.078125 17.628906,5.082031 18.511719,4.195312 C19.398438,3.3125 20.394531,2.546875 21.480469,1.921875 C22.5625,1.292969 23.722656,0.8125 24.933594,0.488281 C26.140625,0.164062 27.386719,0 28.640625,0 C29.890625,0 31.136719,0.164062 32.34375,0.488281 C33.554688,0.8125 34.714844,1.292969 35.800781,1.921875 Z" id="Path"></path>
                <path d="M50.121094,1.921875 L7.160156,26.722656 C6.074219,27.347656 5.078125,28.113281 4.191406,29 C3.308594,29.882812 2.542969,30.882812 1.917969,31.964844 C1.292969,33.046875 0.8125,34.210938 0.488281,35.417969 C0.164062,36.628906 0,37.875 0,39.125 C0,40.375 0.164062,41.621094 0.488281,42.832031 C0.8125,44.039062 1.292969,45.203125 1.917969,46.285156 C2.542969,47.367188 3.308594,48.367188 4.191406,49.25 C5.078125,50.136719 6.074219,50.902344 7.160156,51.527344 L50.121094,76.328125 C51.203125,76.957031 52.363281,77.4375 53.574219,77.761719 C54.78125,78.085938 56.027344,78.25 57.28125,78.25 L57.277344,78.25 C58.53125,78.25 59.777344,78.085938 60.984375,77.761719 C62.195312,77.4375 63.355469,76.957031 64.441406,76.328125 L64.4375,76.328125 L64.441406,76.328125 C65.523438,75.703125 66.519531,74.9375 67.40625,74.054688 C68.289062,73.167969 69.054688,72.171875 69.679688,71.089844 C70.308594,70.003906 70.789062,68.84375 71.113281,67.632812 C71.433594,66.425781 71.597656,65.179688 71.597656,63.929688 L71.597656,14.320312 C71.597656,13.070312 71.433594,11.824219 71.113281,10.617188 C70.789062,9.40625 70.308594,8.246094 69.679688,7.160156 C69.054688,6.078125 68.289062,5.082031 67.40625,4.195312 C66.519531,3.3125 65.523438,2.546875 64.4375,1.921875 C63.355469,1.292969 62.195312,0.8125 60.984375,0.488281 C59.777344,0.164062 58.53125,0 57.28125,0 L57.277344,0 C56.027344,0 54.78125,0.164062 53.574219,0.488281 C52.363281,0.8125 51.203125,1.292969 50.121094,1.921875 Z" id="Path"></path>
            </g>
            <g id="star3" transform="translate(369.164062, 428.652344)" fill="#C2AA6A" fill-opacity="0.5" fill-rule="nonzero">
                <path d="M35.800782,1.921875 L78.761719,26.722656 C79.847657,27.347656 80.84375,28.113281 81.726563,29 C82.613282,29.882812 83.378907,30.882812 84.003907,31.964844 C84.628907,33.046875 85.109376,34.210938 85.433594,35.417969 C85.757813,36.628906 85.921876,37.875 85.921876,39.125 C85.921876,40.375 85.757813,41.621094 85.433594,42.832031 C85.109376,44.039062 84.628907,45.203125 84.003907,46.285156 C83.378907,47.367188 82.613282,48.367188 81.726563,49.25 C80.84375,50.136719 79.847657,50.902344 78.761719,51.527344 L35.800782,76.328125 C34.71875,76.957031 33.558594,77.4375 32.347657,77.761719 C31.140626,78.085938 29.894532,78.25 28.640626,78.25 C27.390626,78.25 26.144532,78.085938 24.9375,77.761719 C23.726563,77.4375 22.566407,76.957031 21.480469,76.328125 C20.398438,75.703125 19.402344,74.9375 18.515626,74.054688 C17.632813,73.167969 16.867188,72.171875 16.242188,71.089844 C15.613282,70.003906 15.132813,68.84375 14.808594,67.632812 C14.484376,66.425781 14.320313,65.179688 14.320313,63.929688 L14.320313,14.320312 C14.320313,13.070312 14.484376,11.824219 14.808594,10.617188 C15.132813,9.40625 15.613282,8.246094 16.242188,7.160156 C16.867188,6.078125 17.632813,5.082031 18.515626,4.195312 C19.402344,3.3125 20.398438,2.546875 21.480469,1.921875 C22.566407,1.292969 23.726563,0.8125 24.9375,0.488281 C26.144532,0.164062 27.390626,0 28.640626,0 C29.894532,0 31.140626,0.164062 32.347657,0.488281 C33.558594,0.8125 34.71875,1.292969 35.800782,1.921875 Z" id="Path"></path>
                <path d="M50.121094,1.921875 L7.160157,26.722656 C6.078126,27.347656 5.082032,28.113281 4.195313,29 C3.3125,29.882812 2.546876,30.882812 1.921876,31.964844 C1.292969,33.046875 0.8125,34.210938 0.488282,35.417969 C0.164063,36.628906 -2.84217094e-14,37.875 -2.84217094e-14,39.125 C-2.84217094e-14,40.375 0.164063,41.621094 0.488282,42.832031 C0.8125,44.039062 1.292969,45.203125 1.921876,46.285156 C2.546876,47.367188 3.3125,48.367188 4.195313,49.25 C5.082032,50.136719 6.078126,50.902344 7.160157,51.527344 L50.121094,76.328125 C51.207032,76.957031 52.367188,77.4375 53.578126,77.761719 L53.574219,77.761719 C54.785157,78.085938 56.03125,78.25 57.28125,78.25 C58.535157,78.25 59.78125,78.085938 60.988282,77.761719 C62.199219,77.4375 63.359376,76.957031 64.441407,76.328125 C65.527344,75.703125 66.523438,74.9375 67.40625,74.054688 L67.410157,74.054688 C68.292969,73.167969 69.058594,72.171875 69.683594,71.089844 C70.308594,70.003906 70.789063,68.84375 71.113282,67.632812 C71.4375,66.425781 71.601563,65.179688 71.601563,63.929688 L71.601563,14.320312 C71.601563,13.070312 71.4375,11.824219 71.113282,10.617188 C70.789063,9.40625 70.308594,8.246094 69.683594,7.160156 C69.058594,6.078125 68.292969,5.082031 67.40625,4.195312 L67.410157,4.195312 C66.523438,3.3125 65.527344,2.546875 64.441407,1.921875 C63.359376,1.292969 62.199219,0.8125 60.988282,0.488281 C59.78125,0.164062 58.535157,0 57.28125,0 C56.03125,0 54.785157,0.164062 53.574219,0.488281 C52.367188,0.8125 51.207032,1.292969 50.121094,1.921875 Z" id="Path"></path>
            </g>
            <path d="M412,0.0625 L412,170.139092 C410.849169,170.137012 409.697885,170.111505 408.546875,170.0625 C405.132812,183.320313 399.347656,195.851563 391.46875,207.042969 C383.589844,218.238282 373.75,227.914063 362.425781,235.605469 C351.101562,243.292969 338.476562,248.867188 325.164062,252.058594 C311.851562,255.246094 298.074219,256 284.492188,254.28125 C270.910156,252.558594 257.753906,248.394532 245.660156,241.988282 C233.5625,235.578125 222.726562,227.03125 213.675781,216.761719 C204.625,206.492188 197.507812,194.667969 192.671875,181.863282 C187.832031,169.058594 185.355469,155.480469 185.355469,141.792969 L185.355469,0.0625 L242.046875,0.0625 L242.046875,141.792969 C242.046875,149.238282 243.515625,156.609375 246.363281,163.488282 C249.210938,170.367188 253.386719,176.617188 258.652344,181.882813 C263.917969,187.144532 270.167969,191.320313 277.046875,194.171875 C283.921875,197.019532 291.296875,198.484375 298.742188,198.484375 C306.183594,198.484375 313.558594,197.019532 320.4375,194.171875 C327.3125,191.320313 333.5625,187.144532 338.828125,181.882813 C344.09375,176.617188 348.269531,170.367188 351.117188,163.488282 C353.96875,156.609375 355.433594,149.238282 355.433594,141.792969 L355.433594,0.0625 L412,0.0625 Z" id="outline1" fill-opacity="0.25" fill="#3B3F46" fill-rule="nonzero"></path>
            <path d="M412,0.0625 L412.125,0.0625 C419.65625,0.0625 427.15625,1.0625 434.425781,3.035156 C441.691406,5.011719 448.664062,7.941406 455.160156,11.753906 C461.65625,15.566406 467.617188,20.222656 472.886719,25.605469 C478.15625,30.988282 482.6875,37.042969 486.363281,43.617188 C490.035156,50.195313 492.820312,57.226563 494.640625,64.535156 C496.464844,71.84375 497.304688,79.359375 497.148438,86.890625 C496.988281,94.421875 495.828125,101.898438 493.703125,109.121094 C491.574219,116.347656 488.496094,123.257813 484.550781,129.671875 C480.601562,136.085938 475.820312,141.945313 470.328125,147.101563 C464.835938,152.257813 458.6875,156.660156 452.035156,160.191406 C445.382812,163.726563 438.292969,166.363282 430.949219,168.03125 C424.728989,169.444037 418.371438,170.150607 412,170.139092 L412,0.0625 Z M412.125,56.753906 L412.125,113.445313 C415.847656,113.445313 419.535156,112.714844 422.972656,111.289063 C426.414062,109.863282 429.539062,107.777344 432.171875,105.144532 C434.800781,102.511719 436.890625,99.386719 438.316406,95.949219 C439.738281,92.507813 440.472656,88.824219 440.472656,85.101563 C440.472656,81.378906 439.738281,77.691406 438.316406,74.253906 C436.890625,70.8125 434.800781,67.6875 432.171875,65.054688 C429.539062,62.425782 426.414062,60.335938 422.972656,58.910156 C419.535156,57.488282 415.847656,56.753906 412.125,56.753906 Z" id="outline2" fill-opacity="0.25" fill="#3B3F46" fill-rule="nonzero"></path>
            <path d="M412.125,141.792969 C417.082031,141.792969 422.015625,141.144532 426.804688,139.863281 C431.589844,138.582032 436.1875,136.679688 440.480469,134.203125 C444.773437,131.726563 448.722656,128.699219 452.226563,125.195313 C455.730469,121.691406 458.761719,117.742188 461.238281,113.453125 C463.714844,109.160157 465.621094,104.5625 466.902344,99.7773441 C468.1875,94.9882816 468.835938,90.0546878 468.835938,85.1015627 C468.835938,80.1445314 468.1875,75.2109378 466.902344,70.4257816 C465.621094,65.6367189 463.714844,61.0390626 461.238281,56.7500003 C458.761719,52.4570315 455.730469,48.5078128 452.226563,45.0078126 C448.722656,41.5039065 444.773437,38.4726566 440.480469,35.9960939 C436.1875,33.5195315 431.589844,31.6171878 426.804688,30.3359378 C422.015625,29.0546877 417.082031,28.4062502 412.125,28.4062502" id="stroke2" stroke="#3B3F46" stroke-width="0.5" stroke-linecap="round" stroke-linejoin="round"></path>
            <polygon id="endArrow2" fill="#797B7D" fill-rule="nonzero" points="423.714844 133.191406 413.78125 138.925782 413.40625 139.144532 412.789062 139.761719 412.570312 140.136719 412.351562 140.515625 412.238281 140.9375 412.125 141.355469 412.125 142.230469 412.238281 142.648438 412.351562 143.070313 412.789062 143.828125 413.097656 144.132813 413.40625 144.441406 413.78125 144.660156 423.714844 150.394532 424.09375 150.613282 424.511719 150.726563 424.933594 150.839844 425.804688 150.839844 426.648438 150.613282 427.027344 150.394532 427.402344 150.175782 427.710938 149.871094 428.019531 149.5625 428.457031 148.804688 428.570312 148.386719 428.679688 147.964844 428.679688 135.621094 428.570312 135.203125 428.457031 134.78125 428.019531 134.023438 427.710938 133.71875 427.402344 133.410156 427.027344 133.191406 426.648438 132.972656 425.804688 132.746094 424.933594 132.746094 424.511719 132.859375 424.09375 132.972656"></polygon>
            <path d="M213.769531,0.06250024 L213.769531,141.785157 C213.769531,152.953125 215.96875,164.011719 220.242187,174.328125 C224.515625,184.644532 230.777344,194.019532 238.675781,201.917969 C246.574219,209.8125 255.945312,216.078125 266.265625,220.351563 C276.582031,224.625 287.640625,226.824219 298.808594,226.824219 C309.976562,226.824219 321.035156,224.625 331.351562,220.351563 C341.667969,216.078125 351.042969,209.8125 358.941406,201.917969 C366.835938,194.019532 373.101563,184.644532 377.375,174.328125 C381.648438,164.011719 383.847656,152.953125 383.847656,141.785157 L383.847656,0.06250024" id="stroke1" stroke="#3B3F46" stroke-width="0.5" stroke-linecap="round" stroke-linejoin="round"></path>
            <polygon id="arrow1_1" fill="#797B7D" fill-rule="nonzero" points="297.238281 218.207032 307.113281 224.039063 307.488281 224.261719 308.097656 224.886719 308.527344 225.644532 308.746094 226.488282 308.742188 226.925782 308.734375 227.359375 308.617188 227.78125 308.5 228.199219 308.28125 228.574219 308.058594 228.949219 307.746094 229.257813 307.433594 229.5625 307.054688 229.773438 297.066406 235.410156 296.683594 235.625 296.261719 235.730469 295.839844 235.839844 295.40625 235.835938 294.96875 235.832032 294.550781 235.714844 294.128906 235.597656 293.378906 235.152344 293.074219 234.84375 292.769531 234.53125 292.339844 233.773438 292.230469 233.347656 292.125 232.925782 292.128906 232.492188 292.242188 221.023438 292.25 220.585938 292.367188 220.167969 292.484375 219.746094 292.703125 219.371094 292.925781 218.996094 293.550781 218.386719 294.308594 217.957032 294.730469 217.847656 295.152344 217.742188 295.589844 217.746094 296.023438 217.75 296.445312 217.867188 296.863281 217.984375"></polygon>
            <polygon id="startArrow1" fill="#797B7D" fill-rule="nonzero" points="205.21875 5.113282 211.050781 14.988282 211.273438 15.363282 211.898438 15.972656 212.65625 16.402344 213.5 16.621094 213.9375 16.617188 214.371094 16.609375 214.792969 16.492188 215.210938 16.375 215.585938 16.15625 215.960938 15.933594 216.269531 15.621094 216.574219 15.308594 216.785156 14.929688 222.421875 4.941406 222.636719 4.558594 222.742188 4.136719 222.851562 3.714844 222.847656 3.28125 222.84375 2.84375 222.726562 2.425782 222.609375 2.003906 222.164062 1.253906 221.855469 0.949219 221.542969 0.644532 221.164062 0.429688 220.78125 0.214844 220.359375 0.105469 219.9375 1.42108547e-14 219.503906 0.003906 208.035156 0.117188 207.597656 0.125 207.179688 0.242188 206.757812 0.359375 206.382812 0.578125 206.007812 0.800782 205.398438 1.425782 204.96875 2.183594 204.859375 2.605469 204.753906 3.027344 204.757812 3.464844 204.761719 3.898438 204.878906 4.320313 204.996094 4.738282"></polygon>
            <path d="M172.707031,13.8945314 C172.851563,13.7070314 172.925781,13.5078126 172.925781,13.3007814 C172.925781,13.0429689 172.832031,12.824219 172.644531,12.6445314 C172.457031,12.4687502 172.230469,12.3789064 171.972656,12.3789064 C171.710938,12.3789064 171.492187,12.4687502 171.316406,12.6445314 C171.136719,12.824219 171.050781,13.0429689 171.050781,13.3007814 C171.050781,13.5078126 171.121094,13.7070314 171.269531,13.8945314 L171.269531,61.5976564 L159.597656,50.0351562 C159.597656,49.7734377 159.507812,49.5507813 159.332031,49.3632813 C159.152344,49.1757813 158.933594,49.0820313 158.675781,49.0820313 C158.425781,49.0820313 158.199219,49.1757813 158.003906,49.3632813 C157.816406,49.5507813 157.722656,49.7734377 157.722656,50.0351562 C157.722656,50.2421877 157.804687,50.4335939 157.972656,50.6132814 C158.136719,50.7890625 158.351562,50.8984377 158.613281,50.9414063 L171.050781,63.3632814 C171.050781,63.5703126 171.136719,63.7617189 171.316406,63.9414064 C171.492187,64.1171877 171.710938,64.2070314 171.972656,64.2070314 C172.230469,64.2070314 172.457031,64.1132814 172.644531,63.9257814 C172.832031,63.7382814 172.925781,63.5117188 172.925781,63.2539062 C172.925781,63.0429688 172.851563,62.8320314 172.707031,62.6132814 L172.707031,13.8945314 Z" id="stroke1Number" stroke="#3B3F46" stroke-width="2.88" stroke-linecap="round" stroke-linejoin="round" transform="translate(165.324219, 38.292969) scale(-1, 1) rotate(-180.000000) translate(-165.324219, -38.292969) "></path>
            <g id="phoneticSound" transform="translate(235.000000, 555.652344)">
                <g id="Clipped">
                    <mask id="mask-6" fill="white">
                        <use xlink:href="#path-5"></use>
                    </mask>
                    <g id="Path"></g>
                    <polygon id="Path" stroke="#000000" stroke-width="0.5" fill="#000000" fill-rule="nonzero" stroke-linecap="round" stroke-linejoin="round" mask="url(#mask-6)" points="0.07812488 0.08984368 14.2382814 0.08984368 14.2382814 70.8906249 0.07812488 70.8906249"></polygon>
                </g>
                <g id="Clipped" transform="translate(0.000000, 14.000000)">
                    <mask id="mask-8" fill="white">
                        <use xlink:href="#path-7"></use>
                    </mask>
                    <g id="Path"></g>
                    <g id="Group" mask="url(#mask-8)">
                        <g transform="translate(-1.000000, 0.000000)" id="Path">
                            <path d="M15.132812,28.519531 C15.132812,26.65625 15.5,24.816406 16.214844,23.09375 C16.925781,21.375 17.96875,19.8125 19.285156,18.496094 C20.601562,17.179688 22.164062,16.136719 23.882812,15.425781 C25.601562,14.710938 27.445312,14.34375 29.308594,14.34375 C31.167969,14.34375 33.011719,14.710938 34.730469,15.425781 C36.449219,16.136719 38.011719,17.179688 39.328125,18.496094 C40.644531,19.8125 41.691406,21.375 42.402344,23.09375 C43.113281,24.816406 43.480469,26.65625 43.480469,28.519531 L57.652344,28.519531 C57.652344,24.796875 56.921875,21.109375 55.496094,17.671875 C54.070312,14.230469 51.984375,11.105469 49.351562,8.476562 C46.71875,5.84375 43.59375,3.753906 40.15625,2.332031 L40.15625,2.328125 C36.714844,0.90625 33.03125,0.171875 29.308594,0.171875 C25.585938,0.171875 21.898438,0.90625 18.460938,2.328125 L18.460938,2.332031 C15.019531,3.753906 11.894531,5.84375 9.261719,8.476562 C6.632812,11.105469 4.542969,14.230469 3.117188,17.671875 C1.695312,21.109375 0.960938,24.796875 0.960938,28.519531 L15.132812,28.519531 Z" stroke="none" fill="#000000" fill-rule="nonzero"></path>
                            <path d="M15.1328124,28.5195313 C15.1328124,26.65625 15.4999999,24.8164062 16.2148438,23.09375 C16.9257814,21.3750001 17.9687501,19.8125 19.2851563,18.4960938 C20.6015626,17.1796875 22.1640624,16.1367188 23.8828126,15.4257812 C25.6015625,14.7109376 27.4453126,14.3437501 29.3085938,14.3437501 C31.1679686,14.3437501 33.0117187,14.7109376 34.7304686,15.4257812 C36.4492188,16.1367188 38.0117186,17.1796875 39.3281249,18.4960938 C40.6445314,19.8125 41.6875001,21.3750001 42.4023437,23.09375 C43.1132813,24.8164062 43.4804688,26.65625 43.4804688,28.5195313 L57.6523438,28.5195313 C57.6523438,24.796875 56.921875,21.109375 55.4960938,17.6718749 C54.0703126,14.2304686 51.9843749,11.1054687 49.3515624,8.47656248 L49.3515624,8.47265624 C46.7187499,5.84375 43.59375,3.75390632 40.1562499,2.33203136 C36.7148438,0.90624992 33.0312499,0.17187488 29.3085938,0.17187488 C25.5859375,0.17187488 21.8984376,0.90624992 18.4609374,2.33203136 C15.0195312,3.75390632 11.8945313,5.84375 9.2617188,8.47265624 L9.2617188,8.47656248 C6.63281256,11.1054687 4.54296864,14.2304686 3.11718744,17.6718749 C1.69531248,21.109375 0.96093744,24.796875 0.96093744,28.5195313 L15.1328124,28.5195313" stroke="#000000" stroke-width="0.5" fill="none" stroke-linecap="round" stroke-linejoin="round"></path>
                        </g>
                    </g>
                </g>
                <g id="Clipped" transform="translate(42.000000, 42.000000)">
                    <mask id="mask-10" fill="white">
                        <use xlink:href="#path-9"></use>
                    </mask>
                    <g id="Path"></g>
                    <polygon id="Path" stroke="#000000" stroke-width="0.5" fill="#000000" fill-rule="nonzero" stroke-linecap="round" stroke-linejoin="round" mask="url(#mask-10)" points="0.55859384 0.5703124 14.7187501 0.5703124 14.7187501 28.8906249 0.55859384 28.8906249"></polygon>
                </g>
                <g id="Clipped" transform="translate(70.000000, 42.000000)">
                    <mask id="mask-12" fill="white">
                        <use xlink:href="#path-11"></use>
                    </mask>
                    <g id="Path"></g>
                    <g id="Group" mask="url(#mask-12)">
                        <path d="M43.347656,0.519531 L57.519531,0.519531 C57.519531,4.242188 56.785156,7.925781 55.363281,11.367188 C53.9375,14.804688 51.851562,17.929688 49.21875,20.5625 C46.585938,23.195312 43.460938,25.28125 40.019531,26.707031 C36.582031,28.132812 32.894531,28.867188 29.171875,28.867188 C25.449219,28.867188 21.765625,28.132812 18.324219,26.707031 C14.886719,25.28125 11.761719,23.195312 9.128906,20.5625 C6.496094,17.929688 4.410156,14.804688 2.984375,11.367188 C1.558594,7.925781 0.828125,4.242188 0.828125,0.519531 L15,0.519531 C15,2.378906 15.367188,4.222656 16.078125,5.941406 C16.792969,7.664062 17.835938,9.226562 19.152344,10.539062 C20.46875,11.855469 22.03125,12.902344 23.75,13.613281 C25.46875,14.324219 27.3125,14.691406 29.171875,14.691406 C31.035156,14.691406 32.878906,14.324219 34.597656,13.613281 C36.316406,12.902344 37.878906,11.855469 39.195312,10.539062 C40.511719,9.226562 41.554688,7.664062 42.269531,5.941406 C42.980469,4.222656 43.347656,2.378906 43.347656,0.519531 Z" id="Path" fill="#000000" fill-rule="nonzero"></path>
                        <path d="M43.3476563,0.51953128 L57.5195313,0.51953128 C57.5195313,4.2421876 56.7851562,7.92578128 55.3632813,11.3671876 C53.9375001,14.8046874 51.8515624,17.9296876 49.2187499,20.5625001 C46.5859374,23.1953126 43.4609375,25.28125 40.0195312,26.7070312 C36.5820314,28.1328124 32.8945312,28.8671874 29.1718749,28.8671874 C25.4492188,28.8671874 21.7656249,28.1328124 18.3242188,26.7070312 C14.8867187,25.28125 11.7617188,23.1953126 9.12890632,20.5625001 C6.49609384,17.9296876 4.41015616,14.8046874 2.98437496,11.3671876 C1.55859376,7.92578128 0.82812496,4.2421876 0.82812496,0.51953128 L14.9999999,0.51953128 C14.9999999,2.37890632 15.3671874,4.22265616 16.078125,5.94140632 C16.7929686,7.66406248 17.8359376,9.22656256 19.1523438,10.5390626 C20.4687501,11.8554688 22.0312499,12.9023438 23.7500001,13.6132814 C25.46875,14.3242187 27.3125001,14.6914062 29.1718749,14.6914062 C31.0351562,14.6914062 32.8789062,14.3242187 34.5976562,13.6132814 C36.3164063,12.9023438 37.8789062,11.8554688 39.1953124,10.5390626 C40.5117186,9.22656256 41.5546876,7.66406248 42.2695312,5.94140632 C42.9804688,4.22265616 43.3476563,2.37890632 43.3476563,0.51953128" id="Path" stroke="#000000" stroke-width="0.5" stroke-linecap="round" stroke-linejoin="round"></path>
                    </g>
                </g>
                <g id="Clipped" transform="translate(70.000000, 14.000000)">
                    <mask id="mask-14" fill="white">
                        <use xlink:href="#path-13"></use>
                    </mask>
                    <g id="Path"></g>
                    <g id="Group" mask="url(#mask-14)">
                        <path d="M43.347656,28.519531 L57.519531,28.519531 C57.519531,24.796875 56.785156,21.109375 55.363281,17.671875 C53.9375,14.230469 51.851562,11.105469 49.21875,8.476562 C46.585938,5.84375 43.460938,3.753906 40.019531,2.332031 L40.019531,2.328125 C36.582031,0.90625 32.894531,0.171875 29.171875,0.171875 C25.449219,0.171875 21.765625,0.90625 18.324219,2.328125 L18.324219,2.332031 C14.886719,3.753906 11.761719,5.84375 9.128906,8.476562 C6.496094,11.105469 4.410156,14.230469 2.984375,17.671875 C1.558594,21.109375 0.828125,24.796875 0.828125,28.519531 L15,28.519531 C15,26.65625 15.367188,24.816406 16.078125,23.09375 C16.792969,21.375 17.835938,19.8125 19.152344,18.496094 C20.46875,17.179688 22.03125,16.136719 23.75,15.425781 C25.46875,14.710938 27.3125,14.34375 29.171875,14.34375 C31.035156,14.34375 32.878906,14.710938 34.597656,15.425781 C36.316406,16.136719 37.878906,17.179688 39.195312,18.496094 C40.511719,19.8125 41.554688,21.375 42.269531,23.09375 C42.980469,24.816406 43.347656,26.65625 43.347656,28.519531 Z" id="Path" fill="#000000" fill-rule="nonzero"></path>
                        <path d="M43.3476563,28.5195313 L57.5195313,28.5195313 C57.5195313,24.796875 56.7851562,21.109375 55.3632813,17.6718749 C53.9375001,14.2304686 51.8515624,11.1054687 49.2187499,8.47656248 L49.2187499,8.47265624 C46.5859374,5.84375 43.4609375,3.75390632 40.0195312,2.33203136 C36.5820314,0.90624992 32.8945312,0.17187488 29.1718749,0.17187488 C25.4492188,0.17187488 21.7656249,0.90624992 18.3242188,2.33203136 C14.8867187,3.75390632 11.7617188,5.84375 9.12890632,8.47265624 L9.12890632,8.47656248 C6.49609384,11.1054687 4.41015616,14.2304686 2.98437496,17.6718749 C1.55859376,21.109375 0.82812496,24.796875 0.82812496,28.5195313 L14.9999999,28.5195313 C14.9999999,26.65625 15.3671874,24.8164062 16.078125,23.09375 C16.7929686,21.3750001 17.8359376,19.8125 19.1523438,18.4960938 C20.4687501,17.1796875 22.0312499,16.1367188 23.7500001,15.4257812 C25.46875,14.7109376 27.3125001,14.3437501 29.1718749,14.3437501 C31.0351562,14.3437501 32.8789062,14.7109376 34.5976562,15.4257812 C36.3164063,16.1367188 37.8789062,17.1796875 39.1953124,18.4960938 C40.5117186,19.8125 41.5546876,21.3750001 42.2695312,23.09375 C42.9804688,24.8164062 43.3476563,26.65625 43.3476563,28.5195313" id="Path" stroke="#000000" stroke-width="0.5" stroke-linecap="round" stroke-linejoin="round"></path>
                    </g>
                </g>
            </g>
            <polygon id="startArrow2" fill="#797B7D" fill-rule="nonzero" transform="translate(420.402344, 28.408203) rotate(180.000000) translate(-420.402344, -28.408203) " points="423.714844 19.804688 413.78125 25.539063 413.40625 25.757813 412.789062 26.375 412.570312 26.75 412.351562 27.128906 412.125 27.972656 412.125 28.84375 412.238281 29.265625 412.351562 29.683594 412.789062 30.441406 413.40625 31.058594 413.78125 31.273438 423.714844 37.007813 424.09375 37.226563 424.511719 37.339844 424.933594 37.453125 425.804688 37.453125 426.648438 37.226563 427.027344 37.007813 427.402344 36.792969 428.019531 36.175782 428.238281 35.796875 428.457031 35.421875 428.570312 35 428.679688 34.578125 428.679688 22.238282 428.570312 21.816406 428.457031 21.394532 428.238281 21.015625 428.019531 20.640625 427.402344 20.023438 427.027344 19.804688 426.648438 19.585938 426.226562 19.472656 425.804688 19.363282 424.933594 19.363282 424.511719 19.472656 424.09375 19.585938"></polygon>
            <polygon id="endArrow1" fill="#797B7D" fill-rule="nonzero" points="375.058594 11.5625 380.894531 1.6875 381.117188 1.3125 381.429688 1.007813 381.738281 0.703125 382.121094 0.488282 382.5 0.273438 383.34375 0.054688 383.78125 0.0625 384.214844 0.066406 384.636719 0.183594 385.054688 0.300782 385.429688 0.519532 385.804688 0.742188 386.109375 1.054688 386.417969 1.367188 386.628906 1.746094 392.265625 11.738282 392.476562 12.117188 392.695312 12.960938 392.691406 13.394532 392.6875 13.832032 392.570312 14.253906 392.453125 14.671875 392.007812 15.421875 391.699219 15.726563 391.386719 16.03125 391.007812 16.246094 390.625 16.460938 389.78125 16.679688 389.347656 16.671875 377.878906 16.558594 377.441406 16.554688 377.019531 16.4375 376.601562 16.320313 375.851562 15.875 375.546875 15.5625 375.242188 15.253906 375.027344 14.871094 374.8125 14.492188 374.59375 13.648438 374.601562 13.210938 374.605469 12.777344 374.722656 12.355469 374.839844 11.9375"></polygon>
            <path d="M523.484375,22.9140628 C523.703125,23.0585939 523.914062,23.1328127 524.125,23.1328127 C524.382812,23.1328127 524.609375,23.0390627 524.796875,22.8515627 C524.984375,22.6640627 525.078125,22.4375003 525.078125,22.1796878 C525.078125,21.917969 524.984375,21.699219 524.796875,21.5234378 C524.609375,21.3476565 524.382812,21.2578127 524.125,21.2578127 C523.914062,21.2578127 523.703125,21.3320315 523.484375,21.4765628 L509.390625,21.4765628 L509.390625,35.3671878 C509.390625,35.9296878 509.414063,36.4921878 509.46875,37.0546878 C509.53125,37.6171878 509.648437,38.1640629 509.828125,38.6953127 C510.003906,39.2343753 510.257813,39.7773441 510.59375,40.3203129 C510.9375,40.8593752 511.390625,41.402344 511.953125,41.9453128 L520.390625,49.4296878 C521.285156,50.2500002 521.96875,51.2109378 522.4375,52.3046877 C522.90625,53.4062502 523.140625,54.5781254 523.140625,55.8203128 L523.140625,64.6171878 C523.140625,65.4609378 523.039062,66.2734377 522.84375,67.0546878 C522.644531,67.8437502 522.3125,68.5429691 521.84375,69.1484378 C521.375,69.7617191 520.75,70.2460941 519.96875,70.6015629 C519.195312,70.9648439 518.238281,71.1484377 517.09375,71.1484377 C516.007812,71.1484377 515.09375,70.9921878 514.34375,70.6796877 C513.59375,70.3671878 512.976563,69.9375002 512.5,69.3984378 C512.019531,68.855469 511.660156,68.2265627 511.421875,67.5078129 C511.191406,66.7968753 511.066406,66.042969 511.046875,65.2421877 C511.117188,65.1796878 511.171875,65.0859378 511.203125,64.9609377 C511.234375,64.8437502 511.25,64.730469 511.25,64.6171878 C511.25,64.355469 511.15625,64.1328129 510.96875,63.9453129 C510.78125,63.7578127 510.5625,63.6640629 510.3125,63.6640629 C510.050781,63.6640629 509.832031,63.7578127 509.65625,63.9453129 C509.476562,64.1328129 509.390625,64.355469 509.390625,64.6171878 C509.390625,64.730469 509.40625,64.8437502 509.4375,64.9609377 C509.476562,65.0859378 509.535156,65.1796878 509.609375,65.2421877 C509.648437,66.230469 509.816406,67.1640628 510.109375,68.0390627 C510.398437,68.9218754 510.835938,69.7031253 511.421875,70.3828127 C512.015625,71.0585939 512.773438,71.5937502 513.703125,71.9921877 C514.628906,72.3984378 515.757812,72.6015628 517.09375,72.6015628 C518.519531,72.6015628 519.707031,72.3750002 520.65625,71.9296878 C521.601563,71.480469 522.367188,70.8828129 522.953125,70.1328129 C523.546875,69.3828129 523.960938,68.5273439 524.203125,67.5703127 C524.453125,66.6093753 524.578125,65.6250002 524.578125,64.6171878 L524.578125,55.8203128 C524.578125,54.6328127 524.367187,53.4062502 523.953125,52.1484378 C523.546875,50.8984377 522.722656,49.6992191 521.484375,48.5546877 L512.984375,41.0546877 C512.160156,40.3359378 511.609375,39.5078128 511.328125,38.5703128 C511.046875,37.6328128 510.878906,36.5625002 510.828125,35.3671878 L510.828125,22.9140628 L523.484375,22.9140628 Z" id="stroke2Number" stroke="#3B3F46" stroke-width="2.88" stroke-linecap="round" stroke-linejoin="round" transform="translate(517.234375, 46.929688) scale(-1, 1) rotate(-180.000000) translate(-517.234375, -46.929688) "></path>
        </g>
    </g>
</svg>